<svg xmlns="http://www.w3.org/2000/svg" viewBox="0 0 440 956"><g clip-path="url(#a)"><path d="M0 0h440v956H0z"/><path d="M106 85.577a2 2 0 0 1 2 0l4.928 2.846a2 2 0 0 1 1 1.732v5.69a2 2 0 0 1-1 1.732L108 100.423a2 2 0 0 1-2 0l-4.928-2.846a2 2 0 0 1-1-1.732v-5.69a2 2 0 0 1 1-1.732z"/><circle cx="110" cy="161" r="4"/><circle cx="44.5" cy="134.5" r="6.5"/><g opacity=".3"><circle cx="204" cy="409" r="103.5" opacity=".32"/><circle cx="204" cy="409" r="61.5" opacity=".4"/><circle cx="204" cy="409" r="23.5" opacity=".4"/><circle cx="204" cy="409" r="161.5" opacity=".16"/><circle cx="204" cy="409" r="236.5" opacity=".08"/></g><g filter="url(#b)" style="mix-blend-mode:overlay"><circle cx="271" cy="662" r="315"/></g><g filter="url(#c)" opacity=".4" style="mix-blend-mode:overlay"><circle cx="228" cy="354" r="315"/></g><path d="M21 298.99s26.011-18.316 55.96-18.316c24.925 0 48.166 43.974 89.32 44.644 54.936.894 70.308-78.412 104.386-75.264s35.843 37.682 61.401 37.682c34.796 0 40.324-55.269 79.933-47.698"/><rect width="63.018" height="193.65" x="56" y="192" fill-opacity=".48" rx="31.509"/><rect width="63.018" height="193.65" x="227.988" y="144" fill-opacity=".48" rx="31.509"/><rect width="63.018" height="193.65" fill-opacity=".48" rx="31.509" transform="matrix(1 0 0 -1 141.994 409.65)"/><rect width="63.018" height="193.65" fill-opacity=".48" rx="31.509" transform="matrix(1 0 0 -1 313.981 353.65)"/><circle cx="87.509" cy="223.509" r="31.509"/><circle cx="259.497" cy="175.509" r="31.509"/><circle cx="173.503" cy="378.141" r="31.509"/><circle cx="345.491" cy="322.141" r="31.509"/><g filter="url(#d)"><rect width="139" height="64" x="150" y="241.325" rx="16" shape-rendering="crispEdges"/><path d="M166.65 265.325v-7.1h2.58q.72 0 1.24.23.53.22.81.64.29.41.29.97 0 .51-.22.9a1.57 1.57 0 0 1-.62.6q.54.21.84.67.3.45.3 1.07t-.32 1.07-.9.7-1.37.25zm1.44-5.87v1.63h.98q.49 0 .75-.2.27-.21.27-.61t-.27-.61q-.26-.21-.75-.21zm0 4.64h1.12q.56 0 .86-.24.31-.24.31-.69t-.31-.69q-.3-.24-.86-.24h-1.12zm5.761 1.23v-7.1h4.45v1.27h-3.01v1.55h2.69v1.27h-2.69v1.74h3.11v1.27zm8.932.15q-.64 0-1.18-.22a2.7 2.7 0 0 1-.91-.64 2.3 2.3 0 0 1-.51-1l1.39-.3q.13.41.45.64.33.23.78.23.32 0 .56-.11a.9.9 0 0 0 .38-.32.8.8 0 0 0 .14-.46.65.65 0 0 0-.25-.53q-.249-.21-.81-.34l-.32-.07q-1.1-.24-1.62-.77a1.82 1.82 0 0 1-.52-1.31q0-.48.19-.88.19-.399.52-.69a2.4 2.4 0 0 1 .79-.46q.45-.17.97-.17.59 0 1.1.22t.86.63.47.97l-1.37.3q-.12-.4-.42-.61a1.1 1.1 0 0 0-.68-.22q-.27 0-.49.11a.85.85 0 0 0-.34.29.7.7 0 0 0-.12.41q0 .351.27.54.27.18.8.3l.32.07q1.09.24 1.61.76.53.52.53 1.33 0 .51-.2.93-.189.42-.54.73a2.5 2.5 0 0 1-.82.48q-.47.16-1.03.16m6.186-.15v-5.78h-2v-1.32h5.49v1.32h-2v5.78zm10.828.15a3.1 3.1 0 0 1-1.18-.22 2.7 2.7 0 0 1-.91-.64 2.3 2.3 0 0 1-.51-1l1.39-.3q.13.41.45.64.33.23.78.23.32 0 .56-.11a.9.9 0 0 0 .38-.32.8.8 0 0 0 .14-.46.65.65 0 0 0-.25-.53q-.25-.21-.81-.34l-.32-.07q-1.1-.24-1.62-.77a1.82 1.82 0 0 1-.52-1.31q0-.48.19-.88.19-.399.52-.69a2.4 2.4 0 0 1 .79-.46q.45-.17.97-.17.59 0 1.1.22t.86.63.47.97l-1.37.3q-.12-.4-.42-.61a1.1 1.1 0 0 0-.68-.22q-.27 0-.49.11a.85.85 0 0 0-.34.29.7.7 0 0 0-.12.41q0 .351.27.54.27.18.8.3l.32.07q1.09.24 1.61.76.53.52.53 1.33 0 .51-.2.93-.19.42-.54.73a2.5 2.5 0 0 1-.82.48 3.2 3.2 0 0 1-1.03.16m6.185-.15v-5.78h-2v-1.32h5.49v1.32h-2v5.78zm5.549 0v-7.1h2.28q.87 0 1.5.28.64.27.98.79.34.51.34 1.21 0 .41-.15.79-.15.37-.42.68-.27.3-.65.5l1.61 2.85h-1.64l-1.27-2.46q-.19.01-.41.01-.32 0-.7-.06v2.51zm1.47-5.84v2.09q.19.03.38.05.19.01.4.01.64 0 .99-.28.35-.29.35-.8t-.35-.79-.99-.28zm5.838 5.84v-7.1h4.45v1.27h-3.01v1.55h2.69v1.27h-2.69v1.74h3.11v1.27zm6.311 0 2.82-7.1h1.58l2.83 7.1h-1.53l-.58-1.56h-3.07l-.58 1.56zm2.52-2.82h2.13l-1.07-2.83zm6.519 2.82v-7.1h1.49v3.15l2.63-3.15h1.74l-2.84 3.31 3.2 3.79h-1.93l-2.8-3.44v3.44zm11.053 0v-7.1h2.76q.84 0 1.53.26.69.25 1.19.72t.77 1.12.27 1.44-.28 1.45q-.27.65-.77 1.13a3.5 3.5 0 0 1-1.2.73q-.69.25-1.53.25zm1.49-1.32h1.18q.71 0 1.23-.27a1.9 1.9 0 0 0 .8-.77q.28-.5.28-1.19t-.28-1.19a1.9 1.9 0 0 0-.8-.77q-.52-.27-1.23-.27h-1.18zm6.217 1.32 2.82-7.1h1.58l2.83 7.1h-1.53l-.58-1.56h-3.07l-.58 1.56zm2.52-2.82h2.13l-1.07-2.83zm7.57 2.82v-2.76l-2.48-4.34h1.66l1.59 2.99 1.58-2.99h1.62l-2.48 4.34v2.76zm-96.193 22v-1.584a81 81 0 0 0 1.602-1.35q.702-.612 1.242-1.116t1.008-.972q.81-.81 1.296-1.422.504-.612.738-1.152a2.8 2.8 0 0 0 .234-1.116q0-.63-.252-1.098a1.77 1.77 0 0 0-.702-.72q-.432-.27-1.026-.27-.81 0-1.404.522-.594.504-.828 1.404l-1.98-.396a4.6 4.6 0 0 1 .828-1.8 4.1 4.1 0 0 1 1.494-1.188 4.4 4.4 0 0 1 1.944-.432 4.2 4.2 0 0 1 1.62.306q.738.288 1.278.828.558.522.846 1.242.306.702.306 1.548 0 .774-.288 1.512t-.918 1.53q-.612.792-1.584 1.746a39 39 0 0 1-2.322 2.088h5.328v1.89zm10.283 0v-1.584a81 81 0 0 0 1.602-1.35q.702-.612 1.242-1.116t1.008-.972q.81-.81 1.296-1.422.504-.612.738-1.152a2.8 2.8 0 0 0 .234-1.116q0-.63-.252-1.098a1.77 1.77 0 0 0-.702-.72q-.432-.27-1.026-.27-.81 0-1.404.522-.594.504-.828 1.404l-1.98-.396a4.6 4.6 0 0 1 .828-1.8 4.1 4.1 0 0 1 1.494-1.188 4.4 4.4 0 0 1 1.944-.432 4.2 4.2 0 0 1 1.62.306q.738.288 1.278.828.558.522.846 1.242.306.702.306 1.548 0 .774-.288 1.512t-.918 1.53q-.612.792-1.584 1.746a39 39 0 0 1-2.322 2.088h5.328v1.89z"/></g><path d="M51.36 553.6q-2.56 0-4.72-.88a10.7 10.7 0 0 1-3.64-2.56q-1.48-1.68-2.04-4l5.56-1.2q.52 1.64 1.8 2.56 1.32.92 3.12.92 1.28 0 2.24-.44 1-.48 1.52-1.28.56-.8.56-1.84 0-1.32-1-2.12-1-.84-3.24-1.36l-1.28-.28q-4.4-.96-6.48-3.08-2.08-2.16-2.08-5.24 0-1.92.76-3.52a8.5 8.5 0 0 1 2.08-2.76 9.6 9.6 0 0 1 3.16-1.84q1.8-.68 3.88-.68 2.36 0 4.4.88a9.3 9.3 0 0 1 3.44 2.52q1.4 1.64 1.88 3.88l-5.48 1.2q-.48-1.6-1.68-2.44-1.16-.88-2.72-.88-1.08 0-1.96.44a3.4 3.4 0 0 0-1.36 1.16 2.9 2.9 0 0 0-.48 1.64q0 1.4 1.08 2.16 1.08.72 3.2 1.2l1.28.28q4.36.96 6.44 3.04 2.12 2.08 2.12 5.32 0 2.04-.8 3.72a8.6 8.6 0 0 1-2.16 2.92q-1.4 1.24-3.28 1.92-1.88.64-4.12.64m21.735 0q-2.2 0-3.8-.84-1.56-.88-2.44-2.52-.84-1.64-.84-4v-9.84h-3.6v-4.52h3.6v-7.2h5.6v7.2h5.76v4.52h-5.76v9.16q0 1.52.64 2.36.64.8 1.96.8a5.7 5.7 0 0 0 1.44-.2 9.3 9.3 0 0 0 1.52-.52l1 4.2a9 9 0 0 1-2.32 1q-1.28.4-2.76.4m13.743 0q-1.64 0-3-.48a7.6 7.6 0 0 1-2.4-1.36 6.7 6.7 0 0 1-1.56-2.12q-.56-1.2-.56-2.64 0-2 1.08-3.52t3.04-2.36q1.96-.88 4.56-.88 1.32 0 2.48.24 1.2.24 2.32.68v-1.24q0-1.8-1.04-2.92-1-1.12-2.76-1.12-1.32 0-2.4.68a3.46 3.46 0 0 0-1.52 1.84l-5-1a6.95 6.95 0 0 1 1.72-3.2q1.32-1.4 3.2-2.16t4.08-.76q2.04 0 3.72.64a8.1 8.1 0 0 1 2.88 1.84 7.9 7.9 0 0 1 1.88 2.84q.68 1.6.68 3.6V553h-5l-.16-2.48q-.84 1.36-2.44 2.24-1.6.84-3.8.84m-2-6.88q0 1.12.92 1.84t2.44.72q1.32 0 2.36-.56a4.3 4.3 0 0 0 1.64-1.52q.6-1 .6-2.2v-.2a10.3 10.3 0 0 0-1.88-.56 8.5 8.5 0 0 0-2-.24q-1.88 0-3 .76-1.08.72-1.08 1.96m19.68 14.44q-1.08 0-2.04-.24a6.1 6.1 0 0 1-1.8-.68l1.08-4.4q.44.2 1.04.32.6.16 1.12.16 1.16 0 2-.64.879-.6 1.44-1.96l.36-.92-8.52-20.92h6.12l5 14.96 4.52-14.96h5.92l-8.68 23.12q-1.2 3.2-3.08 4.68-1.84 1.48-4.48 1.48m32.661-8.16v-23.12h-8v-5.28h21.96v5.28h-8V553zm23.127.6q-2.36 0-4.36-.84a10.8 10.8 0 0 1-3.48-2.32 11.1 11.1 0 0 1-2.32-3.56q-.8-2.04-.8-4.44t.84-4.4a11.1 11.1 0 0 1 2.32-3.56 10.9 10.9 0 0 1 3.52-2.36q2.04-.84 4.44-.84 2.36 0 4.36.84a10.4 10.4 0 0 1 3.48 2.36 10.15 10.15 0 0 1 2.28 3.52q.84 2 .84 4.4t-.84 4.44a10.8 10.8 0 0 1-2.36 3.56 10.35 10.35 0 0 1-3.52 2.36q-2 .84-4.4.84m-2.64-5.84q1.2.8 2.72.8t2.72-.8 1.88-2.16q.72-1.4.72-3.16t-.72-3.12q-.68-1.4-1.88-2.2t-2.72-.8-2.72.8-1.92 2.2q-.68 1.36-.68 3.12t.68 3.16q.72 1.36 1.92 2.16m28.957 3.84q-1.64.8-3.64.8a9 9 0 0 1-3.76-.8 9.4 9.4 0 0 1-3-2.2 10.7 10.7 0 0 1-2-3.32q-.72-1.92-.72-4.12 0-2.28.72-4.2.76-1.96 2.08-3.4a9.9 9.9 0 0 1 3.12-2.24 9.1 9.1 0 0 1 3.88-.84q2.04 0 3.68.84 1.64.8 2.72 2.36l.12-2.6h5.16v18.6q0 2.44-.8 4.44-.76 2-2.2 3.44t-3.44 2.2q-1.96.8-4.36.8-2.36 0-4.24-.76a9.9 9.9 0 0 1-3.28-2.04 9.7 9.7 0 0 1-2.2-3.08l5.36-1.32a5.2 5.2 0 0 0 1.84 1.8q1.16.68 2.6.68 1.56 0 2.68-.72 1.16-.68 1.8-1.96.64-1.24.64-2.92v-1.72a7.7 7.7 0 0 1-2.76 2.28m-4.92-4.88q1.16.72 2.64.72t2.6-.72a5.54 5.54 0 0 0 1.84-2q.68-1.28.68-2.88t-.68-2.84q-.68-1.28-1.84-2-1.12-.76-2.6-.76t-2.64.76q-1.12.72-1.8 2-.68 1.24-.68 2.84t.68 2.88a5.66 5.66 0 0 0 1.8 2m26.756 6.88q-2.36 0-4.36-.8a10.4 10.4 0 0 1-3.4-2.32 10.9 10.9 0 0 1-2.24-3.56q-.8-2.08-.8-4.52 0-2.36.8-4.4t2.2-3.52q1.44-1.52 3.36-2.36t4.16-.84q2.319 0 4.2.8a9.2 9.2 0 0 1 3.28 2.28q1.36 1.48 2.08 3.52.76 2.04.76 4.56v1.4h-15.16q.36 2.36 1.72 3.72 1.36 1.32 3.44 1.32 1.44 0 2.6-.68 1.2-.68 1.96-1.96l5 1.6a8.1 8.1 0 0 1-2.16 3.08q-1.44 1.28-3.36 2-1.92.68-4.08.68m-.28-18q-1.84 0-3.12 1.2-1.24 1.2-1.64 3.28h9.32q-.321-2.08-1.56-3.28-1.2-1.2-3-1.2m21.721 18q-2.2 0-3.8-.84-1.56-.88-2.44-2.52-.84-1.64-.84-4v-9.84h-3.6v-4.52h3.6v-7.2h5.6v7.2h5.76v4.52h-5.76v9.16q0 1.52.64 2.36.64.8 1.96.8.68 0 1.44-.2a9.3 9.3 0 0 0 1.52-.52l1 4.2a9 9 0 0 1-2.32 1q-1.28.4-2.76.4m7.379-.6v-29.84h5.6v11.04a6.6 6.6 0 0 1 2.48-2.12q1.52-.8 3.48-.8 2.32 0 4.04 1.12 1.76 1.08 2.72 3.12t.96 4.8V553h-5.6v-11.96q0-2.2-1-3.44-1-1.28-2.76-1.28-1.28 0-2.24.6a4 4 0 0 0-1.52 1.6q-.56 1.04-.56 2.36V553zm32.75.6q-2.36 0-4.36-.8a10.4 10.4 0 0 1-3.4-2.32 10.9 10.9 0 0 1-2.24-3.56q-.8-2.08-.8-4.52 0-2.36.8-4.4t2.2-3.52q1.44-1.52 3.36-2.36t4.16-.84q2.32 0 4.2.8a9.2 9.2 0 0 1 3.28 2.28q1.36 1.48 2.08 3.52.76 2.04.76 4.56v1.4h-15.16q.36 2.36 1.72 3.72 1.36 1.32 3.44 1.32 1.44 0 2.6-.68 1.2-.68 1.96-1.96l5 1.6a8.1 8.1 0 0 1-2.16 3.08q-1.44 1.28-3.36 2-1.92.68-4.08.68m-.28-18q-1.84 0-3.12 1.2-1.24 1.2-1.64 3.28h9.32q-.32-2.08-1.56-3.28-1.2-1.2-3-1.2m12.796 17.4v-21.12h5.16l.2 3.2q.8-1.68 2.16-2.56 1.36-.92 3.2-.92.56 0 1.12.12.56.08 1 .24l-.6 5.52a3.6 3.6 0 0 0-.92-.2q-.44-.08-.92-.08-2.32 0-3.56 1.44-1.24 1.4-1.24 4V553zM48.76 601.6q-1.64 0-3-.48a7.6 7.6 0 0 1-2.4-1.36 6.7 6.7 0 0 1-1.56-2.12q-.56-1.2-.56-2.64 0-2 1.08-3.52t3.04-2.36q1.96-.88 4.56-.88 1.32 0 2.48.24 1.2.24 2.32.68v-1.24q0-1.8-1.04-2.92-1-1.12-2.76-1.12-1.32 0-2.4.68A3.46 3.46 0 0 0 47 586.4l-5-1a6.94 6.94 0 0 1 1.72-3.2q1.32-1.4 3.2-2.16t4.08-.76q2.04 0 3.72.64a8.1 8.1 0 0 1 2.88 1.84 7.9 7.9 0 0 1 1.88 2.84q.68 1.6.68 3.6V601h-5l-.16-2.48q-.84 1.36-2.44 2.24-1.6.84-3.8.84m-2-6.88q0 1.12.92 1.84t2.44.72q1.32 0 2.36-.56a4.3 4.3 0 0 0 1.64-1.52q.6-1 .6-2.2v-.2a10.3 10.3 0 0 0-1.88-.56 8.5 8.5 0 0 0-2-.24q-1.88 0-3 .76-1.08.72-1.08 1.96M63.623 601v-21.12h5.16l.16 2.72a6.6 6.6 0 0 1 2.52-2.4q1.64-.92 3.72-.92 2.32 0 4.04 1.12 1.76 1.08 2.72 3.12t.96 4.8V601h-5.6v-11.96q0-2.2-1-3.44-1-1.28-2.76-1.28-1.28 0-2.24.6a4 4 0 0 0-1.52 1.6q-.56 1.04-.56 2.36V601zm31.63.6q-2.04 0-3.8-.84a9.7 9.7 0 0 1-3.08-2.32 11.6 11.6 0 0 1-2.08-3.52q-.72-2-.72-4.36 0-2.4.76-4.44t2.12-3.56a9.5 9.5 0 0 1 3.16-2.4 9.06 9.06 0 0 1 3.96-.88q1.96 0 3.56.8 1.64.76 2.72 2.16v-11.08h5.6V601h-5.16l-.16-3.08a8.2 8.2 0 0 1-2.92 2.72q-1.76.96-3.96.96m-1.36-5.84q1.2.8 2.72.8t2.72-.8 1.88-2.16q.72-1.4.72-3.16t-.72-3.12q-.68-1.4-1.88-2.2t-2.72-.8-2.72.8-1.92 2.2q-.68 1.36-.68 3.12t.68 3.16q.72 1.36 1.92 2.16m33.506 5.84q-2.56 0-4.72-.88a10.7 10.7 0 0 1-3.64-2.56q-1.48-1.68-2.04-4l5.56-1.2q.52 1.64 1.8 2.56 1.32.92 3.12.92 1.28 0 2.24-.44 1-.48 1.52-1.28.56-.8.56-1.84 0-1.32-1-2.12-1-.84-3.24-1.36l-1.28-.28q-4.4-.96-6.48-3.08-2.08-2.16-2.08-5.24 0-1.92.76-3.52a8.5 8.5 0 0 1 2.08-2.76 9.6 9.6 0 0 1 3.16-1.84q1.8-.68 3.88-.68 2.36 0 4.4.88a9.3 9.3 0 0 1 3.44 2.52q1.4 1.64 1.88 3.88l-5.48 1.2q-.48-1.6-1.68-2.44-1.16-.88-2.72-.88-1.08 0-1.96.44a3.4 3.4 0 0 0-1.36 1.16 2.9 2.9 0 0 0-.48 1.64q0 1.4 1.08 2.16 1.08.72 3.2 1.2l1.28.28q4.36.96 6.44 3.04 2.12 2.08 2.12 5.32 0 2.04-.8 3.72a8.6 8.6 0 0 1-2.16 2.92q-1.4 1.24-3.28 1.92-1.88.64-4.12.64m21.735 0q-2.2 0-3.8-.84-1.56-.88-2.44-2.52-.84-1.64-.84-4v-9.84h-3.6v-4.52h3.6v-7.2h5.6v7.2h5.76v4.52h-5.76v9.16q0 1.52.64 2.36.64.8 1.96.8.681 0 1.44-.2a9 9 0 0 0 1.52-.52l1 4.2a9 9 0 0 1-2.32 1q-1.28.4-2.76.4m7.379-.6v-21.12h5.16l.2 3.2q.801-1.68 2.16-2.56 1.36-.92 3.2-.92.56 0 1.12.12.56.08 1 .24l-.6 5.52a3.5 3.5 0 0 0-.92-.2q-.44-.08-.92-.08-2.32 0-3.56 1.44-1.24 1.4-1.24 4V601zm24.512.6q-2.36 0-4.36-.84a10.8 10.8 0 0 1-3.48-2.32 11.1 11.1 0 0 1-2.32-3.56q-.8-2.04-.8-4.44t.84-4.4a11.1 11.1 0 0 1 2.32-3.56 10.9 10.9 0 0 1 3.52-2.36q2.04-.84 4.44-.84 2.36 0 4.36.84a10.5 10.5 0 0 1 3.48 2.36 10.15 10.15 0 0 1 2.28 3.52q.84 2 .84 4.4t-.84 4.44a10.8 10.8 0 0 1-2.36 3.56 10.4 10.4 0 0 1-3.52 2.36q-2 .84-4.4.84m-2.64-5.84q1.2.8 2.72.8t2.72-.8 1.88-2.16q.72-1.4.72-3.16t-.72-3.12q-.68-1.4-1.88-2.2t-2.72-.8-2.72.8-1.92 2.2q-.68 1.36-.68 3.12t.68 3.16q.72 1.36 1.92 2.16m16.441 5.24v-21.12h5.16l.16 2.72a6.6 6.6 0 0 1 2.52-2.4q1.64-.92 3.72-.92 2.32 0 4.04 1.12 1.76 1.08 2.72 3.12t.96 4.8V601h-5.6v-11.96q0-2.2-1-3.44-1-1.28-2.76-1.28-1.28 0-2.24.6a4 4 0 0 0-1.52 1.6q-.56 1.04-.56 2.36V601zm35.07-1.4q-1.64.8-3.64.8a9 9 0 0 1-3.76-.8 9.4 9.4 0 0 1-3-2.2 10.7 10.7 0 0 1-2-3.32q-.72-1.92-.72-4.12 0-2.28.72-4.2.76-1.96 2.08-3.4a9.9 9.9 0 0 1 3.12-2.24 9.1 9.1 0 0 1 3.88-.84q2.04 0 3.68.84 1.64.8 2.72 2.36l.12-2.6h5.16v18.6q0 2.44-.8 4.44-.76 2-2.2 3.44t-3.44 2.2q-1.96.8-4.36.8-2.36 0-4.24-.76a9.9 9.9 0 0 1-3.28-2.04 9.7 9.7 0 0 1-2.2-3.08l5.36-1.32a5.2 5.2 0 0 0 1.84 1.8q1.16.68 2.6.68 1.56 0 2.68-.72 1.16-.68 1.8-1.96.64-1.24.64-2.92v-1.72a7.7 7.7 0 0 1-2.76 2.28m-4.92-4.88q1.16.72 2.64.72t2.6-.72a5.5 5.5 0 0 0 1.84-2q.68-1.28.68-2.88t-.68-2.84q-.68-1.28-1.84-2-1.12-.76-2.6-.76t-2.64.76q-1.12.72-1.8 2-.68 1.24-.68 2.84t.68 2.88a5.66 5.66 0 0 0 1.8 2M40.98 634v-9.94h5.894v1.498H42.66v2.856h3.78v1.498h-3.78V634zm9.046-9.856q.14.224.14.49a.9.9 0 0 1-.14.49q-.127.224-.35.364a1 1 0 0 1-.49.126 1 1 0 0 1-.49-.126 1.1 1.1 0 0 1-.364-.364 1 1 0 0 1-.127-.49q0-.266.127-.49.14-.224.364-.35a.9.9 0 0 1 .49-.14.9.9 0 0 1 .49.14q.223.126.35.35M48.387 634v-7.322h1.61V634zm3.35 0v-7.322h1.47l.056 1.008a2.33 2.33 0 0 1 .896-.882 2.66 2.66 0 0 1 1.344-.336q.826 0 1.428.392.616.392.952 1.106t.336 1.68V634h-1.61v-4.172q0-.896-.406-1.4-.392-.504-1.106-.504-.505 0-.91.238a1.7 1.7 0 0 0-.616.644 1.9 1.9 0 0 0-.224.938V634zm11.31.21q-.727 0-1.357-.294a3.4 3.4 0 0 1-1.078-.812 3.9 3.9 0 0 1-.728-1.218 4.4 4.4 0 0 1-.252-1.512q0-.826.266-1.54t.742-1.246a3.4 3.4 0 0 1 1.106-.826q.644-.294 1.386-.294.728 0 1.33.308t.994.868v-4.06h1.61V634h-1.47l-.07-1.176q-.392.644-1.036 1.022-.645.364-1.442.364m-.741-1.764q.476.308 1.078.308.601 0 1.078-.308.476-.322.742-.868.28-.546.28-1.232a2.7 2.7 0 0 0-.28-1.246 2.07 2.07 0 0 0-.742-.854 1.9 1.9 0 0 0-1.078-.322q-.601 0-1.078.322-.476.308-.756.854a2.8 2.8 0 0 0-.266 1.246q0 .686.266 1.232.28.546.756.868M72.438 634v-6.02H71.15v-1.302h1.288v-.518q0-.812.336-1.414.336-.616.924-.952a2.6 2.6 0 0 1 1.344-.35q.434 0 .784.112.364.098.644.252l-.364 1.232a1.7 1.7 0 0 0-.42-.154 1.5 1.5 0 0 0-.448-.07q-.602 0-.896.378-.294.365-.294 1.05v.434h2.1v1.302h-2.1V634zm4.907 0v-7.322h1.47l.07 1.204q.28-.616.77-.952.504-.35 1.176-.35.21 0 .406.028.195.028.35.098l-.182 1.568a1.2 1.2 0 0 0-.322-.07 2 2 0 0 0-.336-.028q-.841 0-1.316.56t-.476 1.554V634zm7.065-9.856q.14.224.14.49a.9.9 0 0 1-.14.49q-.126.224-.35.364a1 1 0 0 1-.49.126 1 1 0 0 1-.49-.126 1.1 1.1 0 0 1-.364-.364 1 1 0 0 1-.126-.49q0-.266.126-.49.14-.224.364-.35a.9.9 0 0 1 .49-.14.9.9 0 0 1 .49.14q.225.126.35.35M82.772 634v-7.322h1.61V634zm6.752.21a3.9 3.9 0 0 1-1.498-.28 3.7 3.7 0 0 1-1.96-2.03 4.5 4.5 0 0 1-.266-1.568q0-.826.266-1.526a3.9 3.9 0 0 1 .756-1.218q.49-.532 1.148-.826a3.5 3.5 0 0 1 1.428-.294q.77 0 1.4.28.645.266 1.106.77.476.504.728 1.204.252.686.252 1.526v.476h-5.418q.07.644.336 1.12.28.462.714.714t1.008.252q1.148 0 1.792-1.022l1.414.546a2.9 2.9 0 0 1-.742 1.008q-.475.42-1.12.644a4 4 0 0 1-1.344.224m-.126-6.44q-.49 0-.882.224a2 2 0 0 0-.644.63 2.5 2.5 0 0 0-.364.952h3.696a2.7 2.7 0 0 0-.322-.952 1.7 1.7 0 0 0-1.484-.854m4.859 6.23v-7.322h1.47l.056 1.008q.321-.56.896-.882a2.66 2.66 0 0 1 1.344-.336q.825 0 1.428.392.615.392.952 1.106t.336 1.68V634h-1.61v-4.172q0-.896-.406-1.4-.392-.504-1.106-.504-.505 0-.91.238a1.7 1.7 0 0 0-.616.644 1.9 1.9 0 0 0-.224.938V634zm11.31.21q-.728 0-1.358-.294a3.4 3.4 0 0 1-1.078-.812 3.9 3.9 0 0 1-.728-1.218 4.4 4.4 0 0 1-.252-1.512q0-.826.266-1.54.267-.714.742-1.246.477-.532 1.106-.826.645-.294 1.386-.294.729 0 1.33.308.603.308.994.868v-4.06h1.61V634h-1.47l-.07-1.176a2.9 2.9 0 0 1-1.036 1.022q-.644.364-1.442.364m-.742-1.764q.477.308 1.078.308.603 0 1.078-.308.477-.322.742-.868.28-.546.28-1.232 0-.7-.28-1.246a2.06 2.06 0 0 0-.742-.854 1.9 1.9 0 0 0-1.078-.322q-.601 0-1.078.322-.475.308-.756.854a2.8 2.8 0 0 0-.266 1.246q0 .686.266 1.232.28.546.756.868m9 1.764q-.714 0-1.33-.238a3 3 0 0 1-1.036-.672 2.6 2.6 0 0 1-.602-1.05l1.456-.378q.183.476.588.742.407.266.938.266.546 0 .896-.252.35-.265.35-.672a.74.74 0 0 0-.28-.588q-.28-.238-.91-.35l-.462-.084q-1.176-.21-1.778-.756-.588-.546-.588-1.4 0-.686.35-1.204.351-.518.966-.812.616-.294 1.414-.294.687 0 1.26.238.574.239.966.672t.56 1.022l-1.442.35a1.44 1.44 0 0 0-.532-.7 1.33 1.33 0 0 0-.826-.266q-.49 0-.812.252a.74.74 0 0 0-.322.616.64.64 0 0 0 .28.532q.294.21.98.336l.462.084q1.12.196 1.722.77.603.574.602 1.428 0 .518-.21.966-.21.434-.602.77a2.6 2.6 0 0 1-.91.49 3.5 3.5 0 0 1-1.148.182m10.198 0q-1.106 0-1.736-.63-.63-.644-.63-1.834v-3.766h-1.288v-1.302h1.288V624.2h1.61v2.478h2.128v1.302h-2.128v3.598q0 .588.238.91.252.308.728.308.252 0 .546-.07.294-.084.546-.224l.364 1.218a2.6 2.6 0 0 1-.756.35q-.42.14-.91.14m6.202 0a3.9 3.9 0 0 1-1.484-.28 3.7 3.7 0 0 1-1.176-.812 3.9 3.9 0 0 1-.784-1.232 4.2 4.2 0 0 1-.28-1.554q0-.826.28-1.526.28-.714.784-1.232a3.5 3.5 0 0 1 1.204-.812 3.9 3.9 0 0 1 1.512-.294q.798 0 1.47.294.686.28 1.19.812.504.518.784 1.218t.28 1.54-.28 1.554a3.8 3.8 0 0 1-.798 1.232 3.6 3.6 0 0 1-1.204.812 3.9 3.9 0 0 1-1.498.28m-1.05-1.764q.476.308 1.078.308t1.078-.308q.476-.322.742-.868.28-.546.28-1.246t-.28-1.232a2.07 2.07 0 0 0-.742-.854 1.9 1.9 0 0 0-1.078-.322q-.602 0-1.078.322-.475.308-.756.854-.266.532-.266 1.232t.266 1.246q.28.546.756.868m12.322 1.764q-.728 0-1.358-.294a3.4 3.4 0 0 1-1.078-.812 3.9 3.9 0 0 1-.728-1.218 4.4 4.4 0 0 1-.252-1.512q0-.826.266-1.54a3.9 3.9 0 0 1 .742-1.246q.476-.532 1.106-.826a3.3 3.3 0 0 1 1.386-.294q.728 0 1.33.308t.994.868v-4.06h1.61V634h-1.47l-.07-1.176q-.392.644-1.036 1.022-.644.364-1.442.364m-.742-1.764q.476.308 1.078.308t1.078-.308q.476-.322.742-.868.28-.546.28-1.232 0-.7-.28-1.246a2.07 2.07 0 0 0-.742-.854 1.9 1.9 0 0 0-1.078-.322q-.602 0-1.078.322-.476.308-.756.854a2.8 2.8 0 0 0-.266 1.246q0 .686.266 1.232.28.546.756.868m8.132-8.302a.9.9 0 0 1 .14.49.9.9 0 0 1-.14.49 1 1 0 0 1-.35.364 1 1 0 0 1-.49.126 1 1 0 0 1-.49-.126 1.1 1.1 0 0 1-.364-.364 1 1 0 0 1-.126-.49q0-.266.126-.49.14-.224.364-.35a.9.9 0 0 1 .49-.14.9.9 0 0 1 .49.14.9.9 0 0 1 .35.35M147.249 634v-7.322h1.61V634zm5.855.21q-.714 0-1.33-.238a3 3 0 0 1-1.036-.672 2.6 2.6 0 0 1-.602-1.05l1.456-.378q.183.476.588.742.407.266.938.266.546 0 .896-.252.35-.265.35-.672a.74.74 0 0 0-.28-.588q-.28-.238-.91-.35l-.462-.084q-1.175-.21-1.778-.756-.588-.546-.588-1.4 0-.686.35-1.204.351-.518.966-.812.616-.294 1.414-.294.687 0 1.26.238.575.239.966.672.393.434.56 1.022l-1.442.35a1.44 1.44 0 0 0-.532-.7 1.33 1.33 0 0 0-.826-.266q-.49 0-.812.252a.74.74 0 0 0-.322.616.64.64 0 0 0 .28.532q.294.21.98.336l.462.084q1.12.196 1.722.77t.602 1.428q0 .518-.21.966-.21.434-.602.77a2.6 2.6 0 0 1-.91.49 3.5 3.5 0 0 1-1.148.182m7.498 0a3.6 3.6 0 0 1-1.442-.28 3.7 3.7 0 0 1-1.148-.798 3.8 3.8 0 0 1-.77-1.218 4.3 4.3 0 0 1-.266-1.526q0-.826.28-1.54a3.9 3.9 0 0 1 .77-1.246q.49-.532 1.148-.826a3.5 3.5 0 0 1 1.456-.308q.756 0 1.386.28.63.266 1.078.77.462.49.658 1.162l-1.526.364a1.9 1.9 0 0 0-.672-.826 1.62 1.62 0 0 0-.952-.294q-.561 0-1.008.322a2.24 2.24 0 0 0-.714.882 2.9 2.9 0 0 0-.252 1.246q0 .686.252 1.232.251.533.686.84.447.308 1.036.308.56 0 1.022-.28.461-.294.686-.826l1.512.35q-.196.672-.672 1.176a3.5 3.5 0 0 1-1.134.77q-.658.266-1.414.266m7.763 0q-.98 0-1.708-.42a2.94 2.94 0 0 1-1.12-1.19q-.392-.784-.392-1.834v-4.088h1.61v4.116q0 .91.434 1.442.434.518 1.19.518t1.19-.518q.434-.532.434-1.442v-4.116h1.61v4.088q0 1.036-.406 1.82a2.9 2.9 0 0 1-1.12 1.204q-.728.42-1.722.42m7.489 0q-.714 0-1.33-.238a3 3 0 0 1-1.036-.672 2.6 2.6 0 0 1-.602-1.05l1.456-.378q.183.476.588.742.407.266.938.266.546 0 .896-.252.35-.265.35-.672a.74.74 0 0 0-.28-.588q-.28-.238-.91-.35l-.462-.084q-1.175-.21-1.778-.756-.588-.546-.588-1.4 0-.686.35-1.204.351-.518.966-.812.616-.294 1.414-.294.687 0 1.26.238.575.239.966.672.393.434.56 1.022l-1.442.35a1.44 1.44 0 0 0-.532-.7 1.33 1.33 0 0 0-.826-.266q-.49 0-.812.252a.74.74 0 0 0-.322.616.64.64 0 0 0 .28.532q.294.21.98.336l.462.084q1.12.196 1.722.77t.602 1.428q0 .518-.21.966-.21.434-.602.77a2.6 2.6 0 0 1-.91.49 3.5 3.5 0 0 1-1.148.182m6.7 0a3.7 3.7 0 0 1-1.33-.238 3 3 0 0 1-1.036-.672 2.6 2.6 0 0 1-.602-1.05l1.456-.378q.181.476.588.742.405.266.938.266.546 0 .896-.252.35-.265.35-.672a.75.75 0 0 0-.28-.588q-.28-.238-.91-.35l-.462-.084q-1.176-.21-1.778-.756-.588-.546-.588-1.4 0-.686.35-1.204t.966-.812 1.414-.294q.686 0 1.26.238.573.239.966.672.392.434.56 1.022l-1.442.35a1.44 1.44 0 0 0-.532-.7 1.33 1.33 0 0 0-.826-.266q-.49 0-.812.252a.73.73 0 0 0-.322.616q0 .322.28.532.293.21.98.336l.462.084q1.119.196 1.722.77.602.574.602 1.428 0 .518-.21.966-.21.434-.602.77a2.6 2.6 0 0 1-.91.49 3.5 3.5 0 0 1-1.148.182m10.477 0a3.6 3.6 0 0 1-1.442-.28 3.7 3.7 0 0 1-1.148-.798 3.8 3.8 0 0 1-.77-1.218 4.3 4.3 0 0 1-.266-1.526q0-.826.28-1.54t.77-1.246 1.148-.826a3.5 3.5 0 0 1 1.456-.308q.756 0 1.386.28.63.266 1.078.77.463.49.658 1.162l-1.526.364a1.9 1.9 0 0 0-.672-.826 1.62 1.62 0 0 0-.952-.294q-.56 0-1.008.322a2.26 2.26 0 0 0-.714.882 2.9 2.9 0 0 0-.252 1.246q0 .686.252 1.232.252.533.686.84.448.308 1.036.308a1.93 1.93 0 0 0 1.022-.28q.462-.294.686-.826l1.512.35q-.195.672-.672 1.176a3.4 3.4 0 0 1-1.134.77 3.7 3.7 0 0 1-1.414.266m7.891 0a3.9 3.9 0 0 1-1.484-.28 3.7 3.7 0 0 1-1.176-.812 3.9 3.9 0 0 1-.784-1.232 4.2 4.2 0 0 1-.28-1.554q0-.826.28-1.526.28-.714.784-1.232a3.5 3.5 0 0 1 1.204-.812 3.9 3.9 0 0 1 1.512-.294q.798 0 1.47.294.687.28 1.19.812.505.518.784 1.218.28.7.28 1.54t-.28 1.554a3.7 3.7 0 0 1-.798 1.232 3.6 3.6 0 0 1-1.204.812q-.685.28-1.498.28m-1.05-1.764q.477.308 1.078.308.603 0 1.078-.308.477-.322.742-.868.28-.546.28-1.246t-.28-1.232a2.06 2.06 0 0 0-.742-.854 1.9 1.9 0 0 0-1.078-.322q-.601 0-1.078.322-.476.308-.756.854-.266.532-.266 1.232t.266 1.246q.28.546.756.868M206.12 634v-7.322h1.47l.056.98q.322-.546.882-.868a2.5 2.5 0 0 1 1.274-.322q.77 0 1.358.392.588.378.91 1.05.21-.433.56-.756.364-.322.84-.504a3 3 0 0 1 1.05-.182q.812 0 1.414.392.602.378.924 1.092.336.7.336 1.68V634h-1.61v-4.186q0-.91-.392-1.4t-1.078-.49q-.476 0-.854.238a1.64 1.64 0 0 0-.588.644q-.21.406-.21.924V634h-1.61v-4.186q0-.91-.392-1.4t-1.078-.49q-.476 0-.854.238a1.64 1.64 0 0 0-.588.644q-.21.406-.21.924V634zm12.811 0v-7.322h1.47l.056.98q.321-.546.882-.868a2.5 2.5 0 0 1 1.274-.322q.77 0 1.358.392.588.378.91 1.05a2.5 2.5 0 0 1 .56-.756q.363-.322.84-.504a3 3 0 0 1 1.05-.182q.811 0 1.414.392.602.378.924 1.092.336.7.336 1.68V634h-1.61v-4.186q0-.91-.392-1.4-.393-.49-1.078-.49-.476 0-.854.238a1.64 1.64 0 0 0-.588.644q-.21.406-.21.924V634h-1.61v-4.186q0-.91-.392-1.4-.393-.49-1.078-.49-.477 0-.854.238a1.64 1.64 0 0 0-.588.644q-.21.406-.21.924V634zm16.212.21a3.9 3.9 0 0 1-1.484-.28 3.7 3.7 0 0 1-1.176-.812 3.9 3.9 0 0 1-.784-1.232 4.2 4.2 0 0 1-.28-1.554q0-.826.28-1.526.28-.714.784-1.232a3.5 3.5 0 0 1 1.204-.812 3.9 3.9 0 0 1 1.512-.294q.798 0 1.47.294.686.28 1.19.812.504.518.784 1.218t.28 1.54-.28 1.554a3.8 3.8 0 0 1-.798 1.232 3.6 3.6 0 0 1-1.204.812 3.9 3.9 0 0 1-1.498.28m-1.05-1.764q.476.308 1.078.308t1.078-.308q.476-.322.742-.868.28-.546.28-1.246t-.28-1.232a2.07 2.07 0 0 0-.742-.854 1.9 1.9 0 0 0-1.078-.322q-.602 0-1.078.322-.475.308-.756.854-.266.532-.266 1.232t.266 1.246q.28.546.756.868m6.248 1.554v-7.322h1.47l.056 1.008q.321-.56.896-.882a2.66 2.66 0 0 1 1.344-.336q.825 0 1.428.392.616.392.952 1.106t.336 1.68V634h-1.61v-4.172q0-.896-.406-1.4-.393-.504-1.106-.504-.505 0-.91.238a1.7 1.7 0 0 0-.616.644q-.224.406-.224.938V634zm14.221.21q-1.106 0-1.736-.63-.63-.644-.63-1.834v-3.766h-1.288v-1.302h1.288V624.2h1.61v2.478h2.128v1.302h-2.128v3.598q0 .588.238.91.252.308.728.308.252 0 .546-.07.294-.084.546-.224l.364 1.218a2.6 2.6 0 0 1-.756.35q-.42.14-.91.14m6.202 0a3.9 3.9 0 0 1-1.484-.28 3.7 3.7 0 0 1-1.176-.812 3.9 3.9 0 0 1-.784-1.232 4.2 4.2 0 0 1-.28-1.554q0-.826.28-1.526.28-.714.784-1.232a3.5 3.5 0 0 1 1.204-.812 3.9 3.9 0 0 1 1.512-.294q.798 0 1.47.294.686.28 1.19.812.504.518.784 1.218t.28 1.54-.28 1.554a3.8 3.8 0 0 1-.798 1.232 3.6 3.6 0 0 1-1.204.812 3.9 3.9 0 0 1-1.498.28m-1.05-1.764q.476.308 1.078.308t1.078-.308q.476-.322.742-.868.28-.546.28-1.246t-.28-1.232a2.07 2.07 0 0 0-.742-.854 1.9 1.9 0 0 0-1.078-.322q-.602 0-1.078.322-.476.308-.756.854-.266.532-.266 1.232t.266 1.246q.28.546.756.868m6.248 4.326v-10.094h1.47l.07 1.176a2.8 2.8 0 0 1 1.036-1.008q.644-.378 1.442-.378.727 0 1.344.294.63.294 1.092.812t.714 1.218q.266.7.266 1.512 0 .826-.266 1.54a3.9 3.9 0 0 1-.742 1.246q-.477.532-1.12.826-.63.294-1.372.294-.729 0-1.33-.308a2.7 2.7 0 0 1-.994-.868v3.738zm2.604-4.326q.475.308 1.078.308.601 0 1.078-.308.475-.322.742-.868a2.7 2.7 0 0 0 .28-1.246q0-.7-.28-1.232a2.1 2.1 0 0 0-.742-.854 1.9 1.9 0 0 0-1.078-.322q-.603 0-1.078.322a2.16 2.16 0 0 0-.756.854q-.267.532-.266 1.232 0 .7.266 1.246.279.546.756.868m7.879-8.302q.14.224.14.49a.9.9 0 0 1-.14.49 1 1 0 0 1-.35.364 1 1 0 0 1-.49.126 1 1 0 0 1-.49-.126 1.14 1.14 0 0 1-.364-.364 1 1 0 0 1-.126-.49q0-.266.126-.49.14-.224.364-.35a.9.9 0 0 1 .49-.14q.267 0 .49.14.224.126.35.35M274.807 634v-7.322h1.61V634zm6.654.21a3.6 3.6 0 0 1-1.442-.28 3.7 3.7 0 0 1-1.148-.798 3.8 3.8 0 0 1-.77-1.218 4.3 4.3 0 0 1-.266-1.526q0-.826.28-1.54t.77-1.246 1.148-.826a3.5 3.5 0 0 1 1.456-.308q.756 0 1.386.28.63.266 1.078.77.462.49.658 1.162l-1.526.364a1.9 1.9 0 0 0-.672-.826 1.62 1.62 0 0 0-.952-.294q-.56 0-1.008.322a2.24 2.24 0 0 0-.714.882 2.9 2.9 0 0 0-.252 1.246q0 .686.252 1.232.252.533.686.84.448.308 1.036.308.56 0 1.022-.28.462-.294.686-.826l1.512.35q-.197.672-.672 1.176a3.4 3.4 0 0 1-1.134.77q-.658.266-1.414.266m7.104 0q-.714 0-1.33-.238a3 3 0 0 1-1.036-.672 2.6 2.6 0 0 1-.602-1.05l1.456-.378q.183.476.588.742.407.266.938.266.546 0 .896-.252.35-.265.35-.672a.74.74 0 0 0-.28-.588q-.28-.238-.91-.35l-.462-.084q-1.175-.21-1.778-.756-.588-.546-.588-1.4 0-.686.35-1.204.351-.518.966-.812.616-.294 1.414-.294.687 0 1.26.238.574.239.966.672t.56 1.022l-1.442.35a1.44 1.44 0 0 0-.532-.7 1.33 1.33 0 0 0-.826-.266q-.49 0-.812.252a.74.74 0 0 0-.322.616.64.64 0 0 0 .28.532q.294.21.98.336l.462.084q1.12.196 1.722.77.603.574.602 1.428 0 .518-.21.966-.21.434-.602.77a2.6 2.6 0 0 1-.91.49 3.5 3.5 0 0 1-1.148.182m5.636-.294q-.238.14-.532.14t-.532-.14a1.15 1.15 0 0 1-.392-.378 1.1 1.1 0 0 1-.14-.546q0-.294.14-.532.153-.252.392-.392.238-.14.532-.14t.532.14.378.392a.97.97 0 0 1 .154.532q0 .294-.154.546-.141.238-.378.378m9.727.364q-1.05 0-1.946-.378a4.7 4.7 0 0 1-1.54-1.092 5.1 5.1 0 0 1-1.008-1.638 5.8 5.8 0 0 1-.364-2.072q0-.896.238-1.694a5.4 5.4 0 0 1 .672-1.47 4.9 4.9 0 0 1 1.05-1.148 4.3 4.3 0 0 1 1.33-.742 4.6 4.6 0 0 1 1.568-.266q.966 0 1.792.35a4.05 4.05 0 0 1 1.442.966q.615.616.924 1.47l-1.638.462q-.364-.798-1.036-1.232a2.6 2.6 0 0 0-1.498-.448q-.659 0-1.218.28-.56.28-.98.784t-.658 1.19q-.225.686-.224 1.484 0 .798.224 1.47.237.658.644 1.148.42.476.98.742a3 3 0 0 0 1.26.266q.867 0 1.526-.434.672-.434 1.078-1.246l1.638.462a4.25 4.25 0 0 1-.938 1.484q-.617.63-1.47.966a5 5 0 0 1-1.848.336m9.035-.07a3.9 3.9 0 0 1-1.484-.28 3.7 3.7 0 0 1-1.176-.812 3.9 3.9 0 0 1-.784-1.232 4.2 4.2 0 0 1-.28-1.554q0-.826.28-1.526.28-.714.784-1.232a3.5 3.5 0 0 1 1.204-.812 3.9 3.9 0 0 1 1.512-.294q.798 0 1.47.294.687.28 1.19.812.505.518.784 1.218.28.7.28 1.54t-.28 1.554a3.7 3.7 0 0 1-.798 1.232 3.6 3.6 0 0 1-1.204.812q-.685.28-1.498.28m-1.05-1.764q.477.308 1.078.308.603 0 1.078-.308.477-.322.742-.868.28-.546.28-1.246t-.28-1.232a2.06 2.06 0 0 0-.742-.854 1.9 1.9 0 0 0-1.078-.322q-.601 0-1.078.322-.476.308-.756.854-.266.532-.266 1.232t.266 1.246q.28.546.756.868m6.248 1.554v-7.322h1.47l.056.98q.322-.546.882-.868a2.5 2.5 0 0 1 1.274-.322q.77 0 1.358.392.588.378.91 1.05.21-.433.56-.756.365-.322.84-.504a3 3 0 0 1 1.05-.182q.812 0 1.414.392.602.378.924 1.092.336.7.336 1.68V634h-1.61v-4.186q0-.91-.392-1.4t-1.078-.49q-.476 0-.854.238a1.64 1.64 0 0 0-.588.644q-.21.406-.21.924V634h-1.61v-4.186q0-.91-.392-1.4t-1.078-.49q-.476 0-.854.238a1.64 1.64 0 0 0-.588.644q-.21.406-.21.924V634zm12.811 2.772v-10.094h1.47l.07 1.176a2.8 2.8 0 0 1 1.036-1.008q.644-.378 1.442-.378.727 0 1.344.294.63.294 1.092.812t.714 1.218q.266.7.266 1.512 0 .826-.266 1.54a3.9 3.9 0 0 1-.742 1.246q-.477.532-1.12.826-.63.294-1.372.294-.729 0-1.33-.308a2.7 2.7 0 0 1-.994-.868v3.738zm2.604-4.326q.475.308 1.078.308.601 0 1.078-.308.475-.322.742-.868a2.7 2.7 0 0 0 .28-1.246q0-.7-.28-1.232a2.1 2.1 0 0 0-.742-.854 1.9 1.9 0 0 0-1.078-.322q-.603 0-1.078.322a2.16 2.16 0 0 0-.756.854q-.267.532-.266 1.232 0 .7.266 1.246.279.546.756.868m6.241 1.554v-10.416h1.61V634zm6.752.21a3.9 3.9 0 0 1-1.498-.28 3.68 3.68 0 0 1-1.96-2.03 4.5 4.5 0 0 1-.266-1.568q0-.826.266-1.526.279-.7.756-1.218.49-.532 1.148-.826a3.5 3.5 0 0 1 1.428-.294q.77 0 1.4.28a3.1 3.1 0 0 1 1.106.77q.476.504.728 1.204.252.686.252 1.526v.476h-5.418q.069.644.336 1.12.279.462.714.714a1.97 1.97 0 0 0 1.008.252q1.147 0 1.792-1.022l1.414.546a2.9 2.9 0 0 1-.742 1.008q-.477.42-1.12.644a4 4 0 0 1-1.344.224m-.126-6.44q-.49 0-.882.224a1.96 1.96 0 0 0-.644.63 2.5 2.5 0 0 0-.364.952h3.696a2.7 2.7 0 0 0-.322-.952 1.7 1.7 0 0 0-1.484-.854m7.828 6.44q-1.106 0-1.736-.63-.63-.644-.63-1.834v-3.766h-1.288v-1.302h1.288V624.2h1.61v2.478h2.128v1.302h-2.128v3.598q0 .588.238.91.252.308.728.308.252 0 .546-.07.294-.084.546-.224l.364 1.218a2.6 2.6 0 0 1-.756.35q-.42.14-.91.14m6.202 0a3.9 3.9 0 0 1-1.498-.28 3.7 3.7 0 0 1-1.176-.812 3.7 3.7 0 0 1-.784-1.218 4.5 4.5 0 0 1-.266-1.568q0-.826.266-1.526a4 4 0 0 1 .756-1.218q.49-.532 1.148-.826a3.5 3.5 0 0 1 1.428-.294q.77 0 1.4.28a3.1 3.1 0 0 1 1.106.77q.476.504.728 1.204.252.686.252 1.526v.476h-5.418q.07.644.336 1.12.28.462.714.714a1.97 1.97 0 0 0 1.008.252q1.148 0 1.792-1.022l1.414.546a2.9 2.9 0 0 1-.742 1.008q-.476.42-1.12.644a4 4 0 0 1-1.344.224m-.126-6.44q-.49 0-.882.224a1.96 1.96 0 0 0-.644.63 2.5 2.5 0 0 0-.364.952h3.696a2.7 2.7 0 0 0-.322-.952 1.7 1.7 0 0 0-1.484-.854M44.172 654.21a3.6 3.6 0 0 1-1.442-.28 3.7 3.7 0 0 1-1.148-.798 3.8 3.8 0 0 1-.77-1.218 4.3 4.3 0 0 1-.266-1.526q0-.826.28-1.54t.77-1.246 1.148-.826a3.5 3.5 0 0 1 1.456-.308q.756 0 1.386.28.63.266 1.078.77.462.49.658 1.162l-1.526.364a1.9 1.9 0 0 0-.672-.826 1.62 1.62 0 0 0-.952-.294q-.56 0-1.008.322a2.25 2.25 0 0 0-.714.882 2.9 2.9 0 0 0-.252 1.246q0 .686.252 1.232.252.533.686.84.448.308 1.036.308.56 0 1.022-.28a1.76 1.76 0 0 0 .686-.826l1.512.35q-.196.672-.672 1.176a3.4 3.4 0 0 1-1.134.77q-.658.266-1.414.266m4.544-.21v-10.416h1.61v3.976q.335-.504.896-.798a2.7 2.7 0 0 1 1.26-.294q.825 0 1.428.392.615.392.952 1.106t.336 1.68V654h-1.61v-4.172q0-.896-.406-1.4-.393-.504-1.106-.504-.505 0-.91.238a1.7 1.7 0 0 0-.616.644 1.9 1.9 0 0 0-.224.938V654zm10.456.21q-.56 0-1.035-.168a2.5 2.5 0 0 1-.812-.476 2.16 2.16 0 0 1-.742-1.652q-.001-.7.364-1.218.377-.532 1.05-.826.67-.294 1.568-.294.49 0 .938.098a4.3 4.3 0 0 1 .853.252v-.462q0-.49-.181-.854a1.4 1.4 0 0 0-.518-.588 1.5 1.5 0 0 0-.812-.21q-.505 0-.91.266-.407.266-.602.742l-1.484-.336q.167-.616.602-1.064a3.2 3.2 0 0 1 1.063-.7q.63-.252 1.358-.252.687 0 1.246.224.575.224.98.63.407.406.63.966t.224 1.246V654h-1.47l-.056-.966q-.294.532-.882.854-.587.322-1.371.322m-.965-2.366q0 .308.167.56.169.238.462.378.309.14.715.14.518 0 .923-.224.407-.224.645-.602.237-.391.237-.882v-.168a4 4 0 0 0-.756-.238 3 3 0 0 0-.784-.098q-.728 0-1.175.308a.96.96 0 0 0-.434.826M64.683 654v-10.416h1.61V654zm3.35 0v-10.416h1.61V654zm6.752.21a3.9 3.9 0 0 1-1.498-.28 3.7 3.7 0 0 1-1.96-2.03 4.5 4.5 0 0 1-.266-1.568q0-.826.266-1.526a3.9 3.9 0 0 1 .756-1.218q.49-.532 1.148-.826a3.5 3.5 0 0 1 1.428-.294q.77 0 1.4.28.644.266 1.106.77.476.504.728 1.204.252.686.252 1.526v.476h-5.418q.069.644.336 1.12.279.462.714.714t1.008.252q1.147 0 1.792-1.022l1.414.546a2.9 2.9 0 0 1-.742 1.008q-.477.42-1.12.644a4 4 0 0 1-1.344.224m-.126-6.44q-.49 0-.882.224a2 2 0 0 0-.644.63 2.5 2.5 0 0 0-.364.952h3.696a2.7 2.7 0 0 0-.322-.952 1.7 1.7 0 0 0-1.484-.854m4.858 6.23v-7.322h1.47l.056 1.008a2.33 2.33 0 0 1 .896-.882 2.66 2.66 0 0 1 1.344-.336q.827 0 1.428.392.616.392.952 1.106t.336 1.68V654h-1.61v-4.172q0-.896-.406-1.4-.391-.504-1.106-.504-.504 0-.91.238a1.7 1.7 0 0 0-.616.644 1.9 1.9 0 0 0-.224.938V654zm11.27-.14a3.2 3.2 0 0 1-1.33-.28 3.4 3.4 0 0 1-1.079-.77 3.6 3.6 0 0 1-.714-1.162 4.1 4.1 0 0 1-.252-1.456q0-.784.252-1.456a3.6 3.6 0 0 1 .742-1.19 3.4 3.4 0 0 1 1.106-.784q.63-.294 1.358-.294.757 0 1.372.336.63.322 1.008.91l.056-1.036h1.47v6.552a4.2 4.2 0 0 1-.266 1.526 3.33 3.33 0 0 1-1.932 1.96 4.1 4.1 0 0 1-1.512.266q-1.12 0-1.96-.504a3.53 3.53 0 0 1-1.316-1.4l1.526-.532q.309.504.77.756.462.266 1.036.266.615 0 1.078-.28.462-.266.714-.77.252-.49.252-1.162v-.7a2.8 2.8 0 0 1-1.008.882q-.615.322-1.372.322m-.715-1.75q.462.294 1.05.294t1.05-.294q.476-.294.742-.798.28-.504.28-1.148t-.28-1.148a2.04 2.04 0 0 0-.742-.798 1.9 1.9 0 0 0-1.05-.294q-.588 0-1.05.294a2.2 2.2 0 0 0-.742.798 2.4 2.4 0 0 0-.266 1.148q0 .644.266 1.148.28.504.742.798m9.842 2.1a3.9 3.9 0 0 1-1.499-.28 3.7 3.7 0 0 1-1.96-2.03 4.5 4.5 0 0 1-.266-1.568q0-.826.267-1.526a3.9 3.9 0 0 1 .756-1.218q.49-.532 1.148-.826a3.5 3.5 0 0 1 1.427-.294q.771 0 1.401.28a3.1 3.1 0 0 1 1.106.77q.476.504.728 1.204.252.686.252 1.526v.476h-5.419q.071.644.337 1.12.28.462.713.714.435.252 1.008.252 1.148 0 1.793-1.022l1.414.546a2.9 2.9 0 0 1-.742 1.008q-.477.42-1.12.644-.63.224-1.344.224m-.127-6.44q-.489 0-.882.224a2 2 0 0 0-.644.63 2.5 2.5 0 0 0-.364.952h3.697a2.7 2.7 0 0 0-.322-.952 1.7 1.7 0 0 0-1.484-.854m7.42 6.44q-.714 0-1.33-.238a3 3 0 0 1-1.036-.672 2.6 2.6 0 0 1-.602-1.05l1.456-.378q.181.476.588.742t.938.266q.546 0 .896-.252.35-.265.35-.672a.74.74 0 0 0-.28-.588q-.28-.238-.91-.35l-.462-.084q-1.176-.21-1.778-.756-.588-.546-.588-1.4 0-.686.35-1.204t.966-.812 1.414-.294q.685 0 1.26.238.575.239.966.672.392.434.56 1.022l-1.442.35a1.44 1.44 0 0 0-.532-.7 1.33 1.33 0 0 0-.826-.266q-.49 0-.812.252a.73.73 0 0 0-.322.616q0 .322.28.532.294.21.98.336l.462.084q1.12.196 1.722.77t.602 1.428q0 .518-.21.966-.21.434-.602.77a2.6 2.6 0 0 1-.91.49 3.5 3.5 0 0 1-1.148.182m10.198 0q-1.107 0-1.736-.63-.63-.644-.63-1.834v-3.766h-1.288v-1.302h1.288V644.2h1.61v2.478h2.128v1.302h-2.128v3.598q0 .588.238.91.251.308.728.308.252 0 .546-.07.294-.084.546-.224l.364 1.218a2.6 2.6 0 0 1-.756.35q-.42.14-.91.14m6.202 0a3.9 3.9 0 0 1-1.484-.28 3.7 3.7 0 0 1-1.176-.812 3.9 3.9 0 0 1-.784-1.232 4.2 4.2 0 0 1-.28-1.554q0-.826.28-1.526.28-.714.784-1.232a3.5 3.5 0 0 1 1.204-.812 3.9 3.9 0 0 1 1.512-.294q.798 0 1.47.294.686.28 1.19.812.504.518.784 1.218t.28 1.54-.28 1.554a3.8 3.8 0 0 1-.798 1.232 3.6 3.6 0 0 1-1.204.812 3.9 3.9 0 0 1-1.498.28m-1.05-1.764q.476.308 1.078.308t1.078-.308q.476-.322.742-.868.28-.546.28-1.246t-.28-1.232a2.07 2.07 0 0 0-.742-.854 1.9 1.9 0 0 0-1.078-.322q-.602 0-1.078.322-.475.308-.756.854-.266.532-.266 1.232t.266 1.246q.28.546.756.868m9.368 1.414q-.714 0-1.33-.28a3.4 3.4 0 0 1-1.078-.77 3.6 3.6 0 0 1-.714-1.162 4.1 4.1 0 0 1-.252-1.456q0-.784.252-1.456a3.6 3.6 0 0 1 .742-1.19 3.4 3.4 0 0 1 1.106-.784q.63-.294 1.358-.294.756 0 1.372.336.63.322 1.008.91l.056-1.036h1.47v6.552q0 .84-.266 1.526a3.3 3.3 0 0 1-.756 1.19 3.3 3.3 0 0 1-1.176.77 4.1 4.1 0 0 1-1.512.266q-1.12 0-1.96-.504a3.5 3.5 0 0 1-1.316-1.4l1.526-.532q.308.504.77.756.462.266 1.036.266.616 0 1.078-.28.462-.266.714-.77.252-.49.252-1.162v-.7a2.8 2.8 0 0 1-1.008.882 2.9 2.9 0 0 1-1.372.322m-.714-1.75q.462.294 1.05.294t1.05-.294q.476-.294.742-.798.28-.504.28-1.148t-.28-1.148a2.04 2.04 0 0 0-.742-.798 1.9 1.9 0 0 0-1.05-.294q-.588 0-1.05.294a2.2 2.2 0 0 0-.742.798 2.4 2.4 0 0 0-.266 1.148q0 .644.266 1.148.28.504.742.798m9.841 2.1q-.811 0-1.498-.28a3.7 3.7 0 0 1-1.176-.812 3.7 3.7 0 0 1-.784-1.218 4.5 4.5 0 0 1-.266-1.568q0-.826.266-1.526a4 4 0 0 1 .756-1.218q.49-.532 1.148-.826a3.5 3.5 0 0 1 1.428-.294q.77 0 1.4.28.644.266 1.106.77a3.4 3.4 0 0 1 .728 1.204q.252.686.252 1.526v.476h-5.418q.07.644.336 1.12.28.462.714.714.435.252 1.008.252 1.149 0 1.792-1.022l1.414.546a2.9 2.9 0 0 1-.742 1.008q-.475.42-1.12.644a4 4 0 0 1-1.344.224m-.126-6.44q-.489 0-.882.224a2 2 0 0 0-.644.63 2.6 2.6 0 0 0-.364.952h3.696a2.7 2.7 0 0 0-.322-.952 1.7 1.7 0 0 0-.63-.63 1.65 1.65 0 0 0-.854-.224m7.828 6.44q-1.106 0-1.736-.63-.63-.644-.63-1.834v-3.766H145.1v-1.302h1.288V644.2h1.61v2.478h2.128v1.302h-2.128v3.598q0 .588.238.91.252.308.728.308.252 0 .546-.07.294-.084.546-.224l.364 1.218a2.6 2.6 0 0 1-.756.35q-.42.14-.91.14m2.937-.21v-10.416h1.61v3.976q.336-.504.896-.798a2.7 2.7 0 0 1 1.26-.294q.826 0 1.428.392.616.392.952 1.106t.336 1.68V654h-1.61v-4.172q0-.896-.406-1.4-.392-.504-1.106-.504-.504 0-.91.238a1.7 1.7 0 0 0-.616.644 1.9 1.9 0 0 0-.224.938V654zm11.619.21a3.9 3.9 0 0 1-1.498-.28 3.7 3.7 0 0 1-1.176-.812 3.7 3.7 0 0 1-.784-1.218 4.5 4.5 0 0 1-.266-1.568q0-.826.266-1.526a4 4 0 0 1 .756-1.218q.49-.532 1.148-.826a3.5 3.5 0 0 1 1.428-.294q.77 0 1.4.28a3.1 3.1 0 0 1 1.106.77q.476.504.728 1.204.252.686.252 1.526v.476h-5.418q.07.644.336 1.12.28.462.714.714a1.97 1.97 0 0 0 1.008.252q1.148 0 1.792-1.022l1.414.546a2.9 2.9 0 0 1-.742 1.008q-.476.42-1.12.644a4 4 0 0 1-1.344.224m-.126-6.44q-.49 0-.882.224a1.96 1.96 0 0 0-.644.63 2.5 2.5 0 0 0-.364.952h3.696a2.7 2.7 0 0 0-.322-.952 1.7 1.7 0 0 0-1.484-.854m4.859 6.23v-7.322h1.47l.07 1.204a2.24 2.24 0 0 1 .77-.952q.504-.35 1.176-.35.21 0 .406.028.195.028.35.098l-.182 1.568a1.2 1.2 0 0 0-.322-.07 2 2 0 0 0-.336-.028q-.84 0-1.316.56t-.476 1.554V654zm5.748-.084q-.238.14-.532.14t-.532-.14a1.2 1.2 0 0 1-.392-.378 1.11 1.11 0 0 1 0-1.078q.155-.252.392-.392t.532-.14.532.14.378.392a1.02 1.02 0 0 1 0 1.078 1.04 1.04 0 0 1-.378.378"/></g><defs><filter id="b" width="793.097" height="793.097" x="-125.548" y="265.452" color-interpolation-filters="sRGB" filterUnits="userSpaceOnUse"><feFlood flood-opacity="0" result="BackgroundImageFix"/><feBlend in="SourceGraphic" in2="BackgroundImageFix" result="shape"/><feGaussianBlur result="effect1_foregroundBlur_41_4603" stdDeviation="40.774"/></filter><filter id="c" width="793.097" height="793.097" x="-168.548" y="-42.548" color-interpolation-filters="sRGB" filterUnits="userSpaceOnUse"><feFlood flood-opacity="0" result="BackgroundImageFix"/><feBlend in="SourceGraphic" in2="BackgroundImageFix" result="shape"/><feGaussianBlur result="effect1_foregroundBlur_41_4603" stdDeviation="40.774"/></filter><filter id="d" width="275" height="200" x="140" y="199.325" color-interpolation-filters="sRGB" filterUnits="userSpaceOnUse"><feFlood flood-opacity="0" result="BackgroundImageFix"/><feColorMatrix in="SourceAlpha" result="hardAlpha" values="0 0 0 0 0 0 0 0 0 0 0 0 0 0 0 0 0 0 127 0"/><feOffset dx="58" dy="26"/><feGaussianBlur stdDeviation="34"/><feComposite in2="hardAlpha" operator="out"/><feColorMatrix values="0 0 0 0 0.135417 0 0 0 0 0.173611 0 0 0 0 0.364583 0 0 0 0.06 0"/><feBlend in2="BackgroundImageFix" result="effect1_dropShadow_41_4603"/><feBlend in="SourceGraphic" in2="effect1_dropShadow_41_4603" result="shape"/></filter><clipPath id="a"><path d="M0 0h440v956H0z"/></clipPath></defs></svg>