<svg xmlns="http://www.w3.org/2000/svg" viewBox="0 0 440 956"><g clip-path="url(#a)"><path d="M0 0h440v956H0z"/><path d="M106 85.577a2 2 0 0 1 2 0l4.928 2.846a2 2 0 0 1 1 1.732v5.69a2 2 0 0 1-1 1.732L108 100.423a2 2 0 0 1-2 0l-4.928-2.846a2 2 0 0 1-1-1.732v-5.69a2 2 0 0 1 1-1.732z"/><circle cx="110" cy="161" r="4"/><circle cx="44.5" cy="134.5" r="6.5"/><g opacity=".3"><circle cx="26" cy="366" r="103.5" opacity=".32"/><circle cx="26" cy="366" r="61.5" opacity=".4"/><circle cx="26" cy="366" r="23.5" opacity=".4"/><circle cx="26" cy="366" r="161.5" opacity=".16"/><circle cx="26" cy="366" r="236.5" opacity=".08"/></g><g filter="url(#b)" style="mix-blend-mode:overlay"><circle cx="93" cy="619" r="315"/></g><g filter="url(#c)" opacity=".4" style="mix-blend-mode:overlay"><circle cx="228" cy="354" r="315"/></g><path d="M45.39 147.98h-1.36a2.08 2.08 0 0 0-.814-1.328 2.3 2.3 0 0 0-.693-.349 2.7 2.7 0 0 0-.806-.117q-.771 0-1.38.387-.606.388-.959 1.137-.348.75-.348 1.83 0 1.089.348 1.838.353.749.963 1.132.61.384 1.372.384.423 0 .801-.114.384-.117.693-.344a2.1 2.1 0 0 0 .823-1.311l1.36.004a3.6 3.6 0 0 1-.423 1.211 3.3 3.3 0 0 1-.797.95 3.6 3.6 0 0 1-1.107.614 4.1 4.1 0 0 1-1.359.218q-1.158 0-2.064-.549-.905-.554-1.43-1.581-.517-1.028-.517-2.452 0-1.429.522-2.453.523-1.028 1.429-1.577.905-.553 2.06-.553.71 0 1.325.205.618.2 1.11.592.492.388.815.95.322.558.435 1.276m2.808 2.047V154h-1.303v-8.921h1.285v3.319h.083q.236-.54.719-.858t1.263-.318q.689 0 1.202.283.519.284.802.845.287.558.287 1.394V154h-1.302v-4.099q0-.736-.379-1.141-.38-.41-1.054-.41-.462 0-.828.196a1.4 1.4 0 0 0-.57.575q-.205.375-.205.906m8.023 4.121q-.635 0-1.15-.235a1.94 1.94 0 0 1-.814-.693q-.296-.453-.296-1.11 0-.567.218-.933.217-.366.588-.579a3 3 0 0 1 .827-.322q.458-.11.932-.166l.976-.113q.375-.048.544-.153.17-.103.17-.339v-.031q0-.57-.322-.884-.318-.314-.95-.314-.658 0-1.036.292-.375.288-.519.641l-1.224-.279q.219-.61.636-.985.423-.378.972-.549.548-.174 1.154-.174.4 0 .85.096.452.091.844.34.397.248.65.71.252.457.252 1.189V154H58.25v-.915h-.05a1.9 1.9 0 0 1-.379.497 2 2 0 0 1-.649.405q-.395.16-.95.161m.284-1.045q.54 0 .923-.214.389-.213.588-.557a1.45 1.45 0 0 0 .205-.745v-.863q-.07.07-.27.131-.196.057-.449.1-.252.04-.492.074l-.4.053a3.2 3.2 0 0 0-.694.161 1.2 1.2 0 0 0-.496.326q-.183.21-.183.558 0 .483.357.732.358.244.91.244m6.055-8.024V154h-1.302v-8.921zm3.055 0V154h-1.302v-8.921zm4.636 9.056q-.99 0-1.704-.422a2.87 2.87 0 0 1-1.097-1.198q-.383-.776-.383-1.817 0-1.027.383-1.812a2.97 2.97 0 0 1 1.08-1.224q.697-.44 1.63-.44.566 0 1.097.188.531.186.954.588.423.4.666 1.041.244.636.244 1.546v.462h-5.318v-.976h4.042q0-.514-.21-.91a1.6 1.6 0 0 0-.587-.632 1.64 1.64 0 0 0-.88-.231 1.7 1.7 0 0 0-.958.27q-.405.266-.628.697a2 2 0 0 0-.217.928v.762q0 .671.235 1.141.24.471.666.719.427.244.998.244.37 0 .675-.104.305-.109.527-.323.222-.213.34-.527l1.232.222a2.2 2.2 0 0 1-.531.954q-.379.405-.954.632-.57.222-1.302.222m5.618-4.108V154h-1.303v-6.691h1.25v1.089h.083q.231-.532.723-.853.497-.323 1.25-.323.684 0 1.198.288.515.282.797.845.284.562.283 1.389V154h-1.302v-4.099q0-.728-.379-1.137-.379-.414-1.041-.414-.453 0-.806.196a1.4 1.4 0 0 0-.553.575q-.2.375-.2.906m8.833 6.621q-.796 0-1.372-.209a2.6 2.6 0 0 1-.932-.553 2.3 2.3 0 0 1-.54-.753l1.12-.462q.117.192.313.405.201.218.54.37.345.153.884.153.741 0 1.224-.362.484-.357.484-1.141v-1.316h-.083a3 3 0 0 1-.34.475 1.8 1.8 0 0 1-.6.453q-.384.192-.998.192a2.8 2.8 0 0 1-1.429-.37q-.632-.375-1.002-1.102-.366-.732-.366-1.799 0-1.068.362-1.83.366-.762 1.002-1.167.635-.41 1.442-.41.622 0 1.006.209.383.206.596.479.218.275.336.484h.096v-1.085h1.276v6.839q0 .862-.4 1.416a2.36 2.36 0 0 1-1.085.819 4.2 4.2 0 0 1-1.534.265m-.013-3.828q.562 0 .95-.262.392-.266.592-.758.205-.496.205-1.189 0-.675-.2-1.189a1.77 1.77 0 0 0-.588-.802q-.388-.291-.959-.291-.587 0-.98.305-.392.3-.592.818a3.3 3.3 0 0 0-.196 1.159q0 .658.2 1.154.2.497.593.776.397.279.975.279m7.662 1.315q-.989 0-1.703-.422a2.87 2.87 0 0 1-1.097-1.198q-.384-.776-.384-1.817 0-1.027.383-1.812a2.97 2.97 0 0 1 1.08-1.224q.697-.44 1.63-.44.566 0 1.097.188.533.186.954.588.423.4.667 1.041.244.636.244 1.546v.462h-5.319v-.976h4.043q0-.514-.21-.91a1.6 1.6 0 0 0-.588-.632 1.64 1.64 0 0 0-.88-.231 1.7 1.7 0 0 0-.958.27q-.405.266-.627.697a2 2 0 0 0-.218.928v.762q0 .671.235 1.141.24.471.667.719.427.244.997.244.37 0 .675-.104.306-.109.528-.323.222-.213.34-.527l1.232.222a2.2 2.2 0 0 1-.531.954q-.38.405-.954.632-.57.222-1.303.222m9.33-5.192-1.181.209a1.4 1.4 0 0 0-.235-.431 1.16 1.16 0 0 0-.427-.336 1.55 1.55 0 0 0-.675-.13q-.554 0-.924.248-.37.243-.37.631 0 .336.248.541.249.204.802.335l1.063.244q.923.213 1.376.658.453.444.453 1.154 0 .601-.348 1.072-.345.465-.963.731-.614.266-1.424.266-1.124 0-1.834-.479-.71-.483-.871-1.372l1.258-.192q.118.493.484.745.366.248.954.248.64 0 1.024-.265.383-.27.383-.658a.68.68 0 0 0-.235-.527q-.23-.214-.71-.323l-1.133-.248q-.936-.213-1.385-.679-.444-.467-.444-1.181 0-.592.33-1.037.331-.444.915-.692.584-.253 1.338-.253 1.085 0 1.707.471.623.465.824 1.25"/><rect width="364.124" height="63.597" x="37.438" y="162.943" rx="13.58"/><rect width="364.124" height="63.597" x="37.438" y="162.943" rx="13.58"/><path fill-rule="evenodd" d="M70.275 189.004a8.76 8.76 0 0 1-8.761 8.762 8.762 8.762 0 1 1 8.762-8.762" clip-rule="evenodd"/><path fill-rule="evenodd" d="M64.645 192.346a.66.66 0 0 1-.337-.092l-3.44-2.051a.66.66 0 0 1-.32-.566v-4.422a.658.658 0 0 1 1.315 0v4.049l3.12 1.86a.658.658 0 0 1-.337 1.222" clip-rule="evenodd"/><path d="M80.887 185.505v-8.709h3.017q.858 0 1.472.282.625.27.969.773.343.502.343 1.189 0 .625-.294 1.104a1.93 1.93 0 0 1-.822.749q.699.245 1.092.821.392.565.392 1.325 0 .748-.38 1.3-.38.553-1.08.859-.686.306-1.63.307zm1.447-7.434v2.306h1.435q.687 0 1.055-.294t.368-.859q0-.54-.38-.846-.368-.307-1.043-.307zm0 6.158h1.57q.785 0 1.214-.343.43-.357.43-.97 0-.638-.43-.981-.428-.343-1.214-.343h-1.57zm9.005 1.46q-.71 0-1.312-.246a3.22 3.22 0 0 1-1.717-1.778 3.9 3.9 0 0 1-.233-1.374q0-.724.233-1.337.245-.614.662-1.067a3.03 3.03 0 0 1 2.257-.982q.675 0 1.227.246.564.233.969.674.416.442.638 1.055.22.602.22 1.337v.417h-4.747q.062.565.295.982.245.405.625.625t.883.221q1.006 0 1.57-.895l1.24.478q-.221.503-.65.883a2.9 2.9 0 0 1-.982.564q-.552.197-1.177.197m-.11-5.643q-.43 0-.773.196-.33.196-.564.552a2.2 2.2 0 0 0-.319.835h3.239a2.4 2.4 0 0 0-.283-.835 1.49 1.49 0 0 0-1.3-.748m6.5 5.643q-.624 0-1.165-.209a2.6 2.6 0 0 1-.907-.589 2.3 2.3 0 0 1-.528-.92l1.276-.331q.16.417.515.65t.822.233q.478 0 .785-.22a.71.71 0 0 0 .307-.589.65.65 0 0 0-.246-.515q-.245-.209-.797-.307l-.405-.074q-1.03-.183-1.557-.662-.516-.478-.516-1.227 0-.6.307-1.055.306-.453.846-.711a2.84 2.84 0 0 1 1.24-.258q.6 0 1.103.209.503.208.847.589.342.38.49.895l-1.263.307a1.26 1.26 0 0 0-.466-.613 1.16 1.16 0 0 0-.724-.234q-.429 0-.712.221a.64.64 0 0 0-.282.54.56.56 0 0 0 .246.466q.257.184.858.294l.405.074q.981.172 1.509.675t.527 1.251q0 .454-.184.846a2.1 2.1 0 0 1-.527.675q-.331.282-.797.429-.454.16-1.006.16m6.252 0q-.969 0-1.521-.552-.552-.565-.552-1.607v-3.3h-1.128v-1.141h1.128v-2.171h1.411v2.171h1.864v1.141h-1.864v3.153q0 .515.208.797.221.27.638.27.22 0 .479-.062.257-.073.478-.196l.319 1.067a2.3 2.3 0 0 1-.662.307 2.5 2.5 0 0 1-.798.123m5.283-.184v-8.709h2.625q1.042 0 1.791.331.76.331 1.165.944.405.614.405 1.46 0 .528-.196.994a2.6 2.6 0 0 1-.54.821 2.7 2.7 0 0 1-.834.601l2.024 3.558h-1.656l-1.681-3.165-.306.024h-.332q-.429 0-.993-.085v3.226zm1.472-7.409v2.882q.258.05.527.074.282.012.552.012.908 0 1.411-.392.503-.393.503-1.092t-.491-1.092q-.49-.392-1.374-.392zm8.69 7.593q-.859 0-1.497-.368a2.57 2.57 0 0 1-.981-1.043q-.343-.687-.343-1.607v-3.582h1.41v3.607q0 .797.38 1.263.38.454 1.043.454t1.043-.454q.38-.466.38-1.263v-3.607h1.411v3.582q0 .908-.356 1.595a2.55 2.55 0 0 1-.981 1.055q-.639.368-1.509.368m4.366-.184v-6.416h1.288l.049.884q.282-.492.785-.773a2.33 2.33 0 0 1 1.177-.295q.724 0 1.252.344.538.344.834.969.294.626.294 1.472v3.815h-1.411v-3.656q0-.785-.355-1.226-.344-.442-.969-.442-.442 0-.798.209a1.5 1.5 0 0 0-.539.564 1.7 1.7 0 0 0-.197.822v3.729zm7.199 0v-6.416h1.288l.049.884q.282-.492.785-.773a2.33 2.33 0 0 1 1.178-.295q.723 0 1.251.344.54.344.834.969.294.626.294 1.472v3.815h-1.41v-3.656q0-.785-.356-1.226-.344-.442-.969-.442-.442 0-.797.209a1.5 1.5 0 0 0-.54.564 1.7 1.7 0 0 0-.196.822v3.729zm10.18.184q-.711 0-1.313-.246a3.22 3.22 0 0 1-1.717-1.778 3.9 3.9 0 0 1-.233-1.374q0-.724.233-1.337.245-.614.662-1.067a3.1 3.1 0 0 1 1.006-.724 3 3 0 0 1 1.251-.258q.675 0 1.227.246.564.233.969.674.417.442.638 1.055.22.602.221 1.337v.417h-4.747q.062.565.294.982.245.405.626.625.38.22.883.221 1.005 0 1.57-.895l1.239.478q-.22.503-.65.883a2.9 2.9 0 0 1-.982.564q-.552.197-1.177.197m-.111-5.643q-.429 0-.772.196a1.74 1.74 0 0 0-.565.552 2.2 2.2 0 0 0-.318.835h3.238a2.4 2.4 0 0 0-.282-.835 1.49 1.49 0 0 0-1.301-.748m4.257 5.459v-6.416h1.288l.062 1.055a1.97 1.97 0 0 1 .674-.834 1.77 1.77 0 0 1 1.031-.306q.184 0 .355.024.172.024.307.086l-.159 1.374a1 1 0 0 0-.282-.062 2 2 0 0 0-.295-.024q-.736 0-1.153.491-.417.49-.417 1.361v3.251zm6.952.184a3.2 3.2 0 0 1-1.166-.209 2.6 2.6 0 0 1-.907-.589 2.3 2.3 0 0 1-.528-.92l1.276-.331q.16.417.515.65t.822.233q.479 0 .785-.22a.71.71 0 0 0 .307-.589.65.65 0 0 0-.246-.515q-.245-.209-.797-.307l-.405-.074q-1.03-.183-1.558-.662-.515-.478-.515-1.227 0-.6.307-1.055.306-.453.846-.711t1.239-.258q.602 0 1.104.209.502.208.846.589.344.38.491.895l-1.263.307a1.26 1.26 0 0 0-.466-.613 1.16 1.16 0 0 0-.724-.234q-.429 0-.712.221a.64.64 0 0 0-.282.54.56.56 0 0 0 .246.466q.257.184.858.294l.405.074q.981.172 1.509.675t.527 1.251q0 .454-.184.846a2.1 2.1 0 0 1-.527.675 2.3 2.3 0 0 1-.798.429q-.453.16-1.005.16m3.759-2.736-.073-6.157h1.521l-.074 6.157zm1.141 2.478a.84.84 0 0 1-.454.123.9.9 0 0 1-.466-.123.96.96 0 0 1-.319-.331.9.9 0 0 1-.122-.454q0-.246.122-.454a.96.96 0 0 1 .319-.331.9.9 0 0 1 .466-.123q.258 0 .454.123a.91.91 0 0 1 .454.785.91.91 0 0 1-.454.785m3.691.932h12.266v-12.266H160.86zM82.94 201.662q-.599 0-1.114-.22a2.6 2.6 0 0 1-.873-.642 2.6 2.6 0 0 1-.526-.978l.81-.189q.126.39.378.673.253.273.59.421t.735.147q.463 0 .82-.21.358-.21.568-.579.21-.368.21-.83 0-.463-.21-.82a1.4 1.4 0 0 0-.568-.558 1.6 1.6 0 0 0-.83-.21q-.243 0-.505.074a2 2 0 0 0-.484.21 1.6 1.6 0 0 0-.378.294l-.705-.094v-3.901h4.038v.81h-3.228v2.323q.536-.504 1.409-.504.505 0 .925.178.43.179.747.505.326.315.494.757.178.43.178.936 0 .515-.189.956-.19.432-.536.757a2.5 2.5 0 0 1-.789.516 2.6 2.6 0 0 1-.967.178m8.175 0q-.536 0-.998-.21a2.5 2.5 0 0 1-.81-.61 2.9 2.9 0 0 1-.547-.904 3.3 3.3 0 0 1-.19-1.135q0-.61.19-1.136.2-.525.547-.915.357-.388.83-.609a2.4 2.4 0 0 1 1.02-.221q.62 0 1.115.284.504.283.799.799v-3.302h.841v7.802h-.757l-.042-1.031q-.294.558-.82.873-.516.315-1.178.315m-.588-.925q.337.158.736.158.4 0 .725-.158.336-.158.578-.431.252-.284.39-.662a2.6 2.6 0 0 0 .136-.852q0-.463-.137-.841a1.9 1.9 0 0 0-.389-.662 1.69 1.69 0 0 0-1.303-.6q-.4 0-.737.158-.326.157-.578.442a2 2 0 0 0-.378.662 2.5 2.5 0 0 0-.137.841q0 .462.137.852.136.378.378.662.253.273.579.431m6.54.925q-.568 0-1.01-.21a1.76 1.76 0 0 1-.693-.599 1.6 1.6 0 0 1-.242-.873q0-.536.273-.925.284-.389.789-.599.505-.222 1.177-.221.379 0 .768.084t.694.221v-.4q0-.441-.18-.767a1.2 1.2 0 0 0-.472-.515 1.3 1.3 0 0 0-.715-.19q-.495 0-.862.232a1.4 1.4 0 0 0-.536.651l-.736-.252q.147-.42.452-.725.315-.305.746-.473.442-.17.946-.169.653 0 1.136.284.495.273.757.778.273.495.273 1.167v3.344h-.736l-.052-.841a1.75 1.75 0 0 1-.705.725 2.07 2.07 0 0 1-1.072.273m-1.094-1.713q0 .305.158.536.157.22.442.347.283.126.652.126.45 0 .81-.2.367-.21.577-.557.21-.357.21-.81v-.199a4 4 0 0 0-.704-.211 2.8 2.8 0 0 0-.662-.084q-.694 0-1.094.284a.9.9 0 0 0-.389.768m5.388 3.806q-.22 0-.41-.053a1.6 1.6 0 0 1-.389-.147l.242-.673q.105.063.231.095.137.031.284.031.325 0 .568-.21.252-.2.431-.642l.283-.704-2.249-5.373h.925l1.735 4.458 1.566-4.458h.894l-2.418 6.277q-.274.715-.694 1.052a1.52 1.52 0 0 1-.999.347m6.754-2.093q-.473 0-.893-.157a2.1 2.1 0 0 1-.715-.452 1.95 1.95 0 0 1-.463-.694l.757-.274q.21.4.547.621.336.22.767.22.348 0 .61-.115a1 1 0 0 0 .41-.316.8.8 0 0 0 .147-.462q0-.684-.988-.883l-.41-.085q-.862-.168-1.272-.546a1.3 1.3 0 0 1-.41-.978q0-.474.242-.841.241-.369.673-.568.441-.21.998-.21.464 0 .852.157.389.148.662.442.284.294.431.694l-.757.252a1.33 1.33 0 0 0-.483-.599 1.2 1.2 0 0 0-.715-.221q-.315 0-.557.105a.94.94 0 0 0-.368.284.68.68 0 0 0-.137.421q0 .336.252.536.264.2.841.315l.41.085q.779.157 1.188.557.411.389.411.999 0 .378-.158.694a1.6 1.6 0 0 1-.421.536 1.8 1.8 0 0 1-.641.357 2.5 2.5 0 0 1-.81.126m7.02-.157v-6.298l-1.724.967-.347-.694 2.229-1.23h.704v7.255zm4.953.157a3 3 0 0 1-1.125-.21 2.4 2.4 0 0 1-.873-.62 2.6 2.6 0 0 1-.526-.999l.81-.189q.2.588.641.914.442.316 1.051.316.464 0 .831-.179.368-.179.578-.494.211-.316.211-.715 0-.42-.211-.725a1.3 1.3 0 0 0-.578-.474 2.1 2.1 0 0 0-.873-.168h-.788v-.788h.757q.473 0 .809-.158.348-.157.537-.442.189-.294.189-.673 0-.346-.189-.609a1.16 1.16 0 0 0-.494-.421 1.7 1.7 0 0 0-.736-.147q-.579 0-.999.315-.41.306-.589.862l-.799-.189q.137-.546.473-.936.346-.4.852-.62a2.7 2.7 0 0 1 1.104-.221q.483 0 .893.148.42.137.726.399.305.253.473.61.168.347.168.767 0 .569-.284.999a1.86 1.86 0 0 1-.82.673q.59.21.925.684.337.473.337 1.124 0 .453-.189.852a2.3 2.3 0 0 1-.526.694q-.336.294-.789.463a3 3 0 0 1-.977.157m6.058-.157v-7.802h.841v3.165a1.76 1.76 0 0 1 .694-.683 2 2 0 0 1 1.02-.263q.62 0 1.083.294t.704.841q.252.537.252 1.272v3.176h-.841v-3.123q0-.81-.357-1.251-.347-.442-.999-.442-.451 0-.81.211a1.4 1.4 0 0 0-.546.567q-.2.358-.2.82v3.218zm9.507-.053q-.494.21-1.072.21t-1.073-.21a2.8 2.8 0 0 1-.851-.599 2.8 2.8 0 0 1-.558-.915 3.2 3.2 0 0 1-.199-1.146q0-.62.199-1.146.21-.525.568-.904.368-.389.862-.599.495-.222 1.073-.221.578 0 1.061.221.495.21.852.599.368.379.568.904.2.527.2 1.146 0 .621-.211 1.146a2.7 2.7 0 0 1-.567.915 2.7 2.7 0 0 1-.852.599m-1.798-.715q.337.158.736.158t.726-.158q.336-.158.578-.431.252-.284.389-.662.136-.39.136-.852 0-.463-.136-.841a1.9 1.9 0 0 0-.389-.662 1.69 1.69 0 0 0-1.304-.6q-.4 0-.736.158-.326.157-.578.442a2 2 0 0 0-.379.662 2.5 2.5 0 0 0-.136.841q0 .462.136.852.137.378.379.662.252.273.578.431m8.039.62q-.514.305-1.209.305-.694 0-1.199-.305a2 2 0 0 1-.778-.862q-.273-.567-.273-1.345v-3.071h.841v3.081q0 .537.168.925.18.39.495.6.326.21.767.21t.757-.21q.326-.21.494-.6a2.2 2.2 0 0 0 .179-.925v-3.081h.841v3.071q0 .756-.284 1.324a2.1 2.1 0 0 1-.799.883m2.518.148v-5.426h.757l.052 1.01a1.7 1.7 0 0 1 .6-.789q.4-.294.935-.294.179 0 .316.031.147.02.252.064l-.105.799a1 1 0 0 0-.242-.053 1.5 1.5 0 0 0-.252-.021q-.442 0-.778.221a1.5 1.5 0 0 0-.515.631q-.18.399-.179.946v2.881zm5.656.157q-.472 0-.894-.157a2.1 2.1 0 0 1-.715-.452 2 2 0 0 1-.462-.694l.757-.274q.21.4.547.621.336.22.767.22.347 0 .61-.115a1 1 0 0 0 .41-.316.8.8 0 0 0 .147-.462q0-.684-.988-.883l-.41-.085q-.862-.168-1.272-.546a1.3 1.3 0 0 1-.41-.978q0-.474.241-.841.243-.369.673-.568.442-.21.999-.21.463 0 .852.157.389.148.662.442.284.294.431.694l-.757.252a1.33 1.33 0 0 0-.483-.599 1.2 1.2 0 0 0-.715-.221q-.316 0-.558.105a.95.95 0 0 0-.368.284.67.67 0 0 0-.136.421q0 .336.252.536.263.2.841.315l.41.085q.778.157 1.188.557.41.389.41.999 0 .378-.157.694a1.6 1.6 0 0 1-.421.536 1.8 1.8 0 0 1-.641.357 2.5 2.5 0 0 1-.81.126m5.443-.157v-7.802h.841v7.802zm4.77.157a2.9 2.9 0 0 1-1.104-.21 2.6 2.6 0 0 1-.862-.589 2.8 2.8 0 0 1-.568-.904 3.2 3.2 0 0 1-.199-1.156q0-.62.189-1.136.2-.525.547-.915.357-.389.83-.599a2.4 2.4 0 0 1 1.03-.221q.536 0 .989.2.462.2.799.557.336.358.515.852.189.494.189 1.072v.347h-4.216q.042.589.274 1.031.242.441.641.683.4.242.925.242.515 0 .894-.21.389-.221.662-.642l.715.326q-.21.4-.547.684a2.3 2.3 0 0 1-.778.431 2.7 2.7 0 0 1-.925.157m.642-4.804a1.47 1.47 0 0 0-.779-.211q-.43 0-.788.211-.347.21-.589.588a2.2 2.2 0 0 0-.305.862h3.291a2 2 0 0 0-.263-.862 1.63 1.63 0 0 0-.567-.588m3.418 4.647v-4.711h-.999v-.715h.999v-.504q0-.6.22-1.041.221-.452.621-.694.41-.242.946-.242.567 0 1.02.274l-.242.651a1.7 1.7 0 0 0-.347-.136 1.4 1.4 0 0 0-.378-.053q-.495 0-.747.326t-.252.936v.483h1.713v.715h-1.713v4.711zm5.674.157q-.494 0-.852-.199a1.4 1.4 0 0 1-.557-.589q-.189-.39-.189-.946v-3.134h-.999v-.715h.999v-1.818h.841v1.818h1.703v.715h-1.703v3.092q0 .483.2.757.21.262.63.262a1.6 1.6 0 0 0 .442-.063 1.7 1.7 0 0 0 .41-.189l.252.652a1.8 1.8 0 0 1-.515.252 2 2 0 0 1-.662.105m206.875-20.157c0 4.546-3.754 8.245-8.402 8.245s-8.403-3.699-8.403-8.245c0-4.547 3.755-8.245 8.403-8.245s8.402 3.698 8.402 8.245"/><path d="M387.562 181.505c0 4.546-3.755 8.245-8.403 8.245s-8.402-3.699-8.402-8.245c0-4.547 3.754-8.245 8.402-8.245s8.403 3.698 8.403 8.245m-72.818 19.683v-.715a42 42 0 0 0 1.336-1.146q.63-.568 1.104-1.052a9 9 0 0 0 .778-.883q.294-.378.42-.694.126-.326.126-.662 0-.441-.178-.768a1.25 1.25 0 0 0-.495-.515 1.35 1.35 0 0 0-.725-.189q-.568 0-.978.347t-.589.967l-.799-.2q.137-.578.484-.998.346-.432.831-.663a2.4 2.4 0 0 1 1.072-.242q.483 0 .894.169.41.158.715.452t.473.694q.178.399.178.862 0 .672-.399 1.367-.389.683-1.241 1.514-.2.189-.483.441-.274.252-.6.536-.315.285-.651.568h3.501v.81zm8.845 0v-4.71h-.999v-.715h.999v-.505q0-.6.221-1.041a1.6 1.6 0 0 1 .62-.694 1.83 1.83 0 0 1 .946-.242q.568 0 1.02.274l-.242.652a1.7 1.7 0 0 0-.347-.137 1.4 1.4 0 0 0-.378-.053q-.494 0-.747.326-.252.326-.252.936v.484h1.714v.715h-1.714v4.71zm3.542 0v-5.425h.757l.053 1.009q.2-.505.599-.789.4-.294.936-.294.178 0 .315.032.147.021.253.063l-.105.799a1 1 0 0 0-.242-.053 1.5 1.5 0 0 0-.253-.021 1.4 1.4 0 0 0-.778.221 1.5 1.5 0 0 0-.515.631 2.3 2.3 0 0 0-.179.946v2.881zm4.858-7.297a.5.5 0 0 1 .084.284.6.6 0 0 1-.295.505.61.61 0 0 1-.578 0 .8.8 0 0 1-.21-.211.61.61 0 0 1 0-.578.6.6 0 0 1 .505-.294q.157 0 .283.084a.5.5 0 0 1 .211.21m-.915 7.297v-5.425h.841v5.425zm4.77.157a2.9 2.9 0 0 1-1.104-.21 2.6 2.6 0 0 1-.862-.589 2.7 2.7 0 0 1-.567-.904 3.2 3.2 0 0 1-.2-1.156q0-.62.189-1.136a2.9 2.9 0 0 1 .547-.915q.357-.389.83-.599a2.4 2.4 0 0 1 1.031-.221q.536 0 .988.2.462.2.799.557.336.358.515.852.19.494.19 1.072v.347h-4.217q.043.589.274 1.031.242.441.641.683.4.242.925.242.516 0 .894-.21.389-.221.662-.642l.715.326a2.27 2.27 0 0 1-1.324 1.115 2.7 2.7 0 0 1-.926.157m.642-4.804a1.47 1.47 0 0 0-.778-.211q-.431 0-.789.211-.346.21-.589.588a2.2 2.2 0 0 0-.304.863h3.29a2 2 0 0 0-.262-.863 1.65 1.65 0 0 0-.568-.588m2.915 4.647v-5.425h.757l.042.862q.241-.463.694-.736a2 2 0 0 1 1.062-.284q.62 0 1.083.294.462.295.704.841.252.537.252 1.273v3.175h-.841v-3.123q0-.81-.357-1.251-.346-.441-.999-.442-.452 0-.809.211a1.4 1.4 0 0 0-.547.567q-.2.358-.2.821v3.217zm8.298.157q-.537 0-.999-.21a2.5 2.5 0 0 1-.809-.61 2.9 2.9 0 0 1-.547-.904 3.3 3.3 0 0 1-.189-1.135q0-.61.189-1.136.2-.525.547-.915.357-.388.83-.609a2.4 2.4 0 0 1 1.02-.221q.62 0 1.114.284.505.283.799.799v-3.302h.842v7.802h-.757l-.042-1.031q-.295.558-.821.873a2.2 2.2 0 0 1-1.177.315m-.589-.925q.337.158.736.158t.726-.158q.336-.158.578-.431.252-.284.389-.662.137-.39.137-.852 0-.463-.137-.841a1.9 1.9 0 0 0-.389-.662 1.69 1.69 0 0 0-1.304-.6q-.4 0-.736.158-.326.157-.578.442a2 2 0 0 0-.379.662 2.5 2.5 0 0 0-.136.841q0 .463.136.852.137.378.379.662.252.273.578.431m6.572.925q-.472 0-.894-.157a2.1 2.1 0 0 1-.715-.452 2 2 0 0 1-.462-.694l.757-.274q.21.4.547.621.336.22.767.22.347 0 .61-.115a1 1 0 0 0 .41-.316.8.8 0 0 0 .147-.462q0-.684-.988-.883l-.41-.084q-.863-.17-1.272-.547a1.3 1.3 0 0 1-.41-.978q0-.473.241-.841.243-.368.673-.568.442-.21.999-.21.462 0 .852.158.389.147.662.441.284.294.431.694l-.757.252a1.33 1.33 0 0 0-.484-.599 1.2 1.2 0 0 0-.714-.221q-.317 0-.558.105a.96.96 0 0 0-.368.284.68.68 0 0 0-.136.421q0 .336.252.536.263.2.841.316l.41.084q.779.158 1.188.557.41.388.41.999 0 .378-.158.694a1.6 1.6 0 0 1-.42.536 1.8 1.8 0 0 1-.641.357 2.5 2.5 0 0 1-.81.126m6.41-7.454a.5.5 0 0 1 .084.284.6.6 0 0 1-.294.505.62.62 0 0 1-.579 0 .8.8 0 0 1-.21-.211.61.61 0 0 1 0-.578.6.6 0 0 1 .505-.294q.158 0 .284.084a.5.5 0 0 1 .21.21m-1.609 9.547q-.242 0-.473-.063a1.5 1.5 0 0 1-.41-.179l.263-.652q.105.053.252.095.137.052.295.052a.69.69 0 0 0 .557-.252q.21-.252.21-.694v-5.982h.841v6.003q0 .494-.199.873a1.4 1.4 0 0 1-.537.588 1.5 1.5 0 0 1-.799.211m6.483-2.303q-.494.21-1.072.21t-1.073-.21a2.8 2.8 0 0 1-.851-.599 2.8 2.8 0 0 1-.557-.915 3.2 3.2 0 0 1-.2-1.146q0-.62.2-1.146.21-.525.567-.904.369-.389.862-.599.495-.222 1.073-.221.577 0 1.062.221.494.21.851.599.369.379.568.904.2.526.2 1.146 0 .621-.21 1.146a2.7 2.7 0 0 1-.568.915 2.6 2.6 0 0 1-.852.599m-1.798-.715q.337.158.736.158.4 0 .726-.158.336-.158.578-.431.252-.284.389-.662.137-.39.137-.852 0-.463-.137-.841a1.9 1.9 0 0 0-.389-.662 1.69 1.69 0 0 0-1.304-.6q-.399 0-.736.158-.326.157-.578.442a2 2 0 0 0-.378.662 2.5 2.5 0 0 0-.137.841q0 .463.137.852.137.378.378.662.252.273.578.431m5.537-6.529a.5.5 0 0 1 .084.284.6.6 0 0 1-.294.505.61.61 0 0 1-.578 0 .7.7 0 0 1-.211-.211.61.61 0 0 1 0-.578.6.6 0 0 1 .211-.21.55.55 0 0 1 .294-.084q.158 0 .284.084a.5.5 0 0 1 .21.21m-.915 7.297v-5.425h.842v5.425zm2.311 0v-5.425h.757l.042.862q.241-.463.694-.736a2 2 0 0 1 1.061-.284q.621 0 1.083.294.464.295.705.841.252.537.252 1.273v3.175h-.841v-3.123q0-.81-.357-1.251-.348-.441-.999-.442-.453 0-.81.211a1.43 1.43 0 0 0-.547.567 1.66 1.66 0 0 0-.199.821v3.217zm8.487.157q-.6 0-1.104-.21a2.6 2.6 0 0 1-.862-.589 2.7 2.7 0 0 1-.568-.904q-.2-.525-.2-1.156 0-.62.189-1.136a3 3 0 0 1 .547-.915q.357-.389.831-.599a2.4 2.4 0 0 1 1.03-.221q.537 0 .988.2a2.37 2.37 0 0 1 1.315 1.409q.189.494.189 1.072v.347h-4.216q.042.589.273 1.031.241.441.642.683.399.242.925.242.515 0 .893-.21.39-.221.663-.642l.715.326a2.27 2.27 0 0 1-1.325 1.115 2.7 2.7 0 0 1-.925.157m.641-4.804a1.47 1.47 0 0 0-.778-.211q-.43 0-.788.211-.348.21-.589.588a2.2 2.2 0 0 0-.305.863h3.291a2 2 0 0 0-.263-.863 1.64 1.64 0 0 0-.568-.588m5.238 4.804q-.537 0-.999-.21a2.5 2.5 0 0 1-.81-.61 3 3 0 0 1-.547-.904 3.3 3.3 0 0 1-.189-1.135q0-.61.189-1.136a3 3 0 0 1 .547-.915 2.6 2.6 0 0 1 .831-.609 2.4 2.4 0 0 1 1.02-.221q.62 0 1.114.284.505.283.799.799v-3.302h.841v7.802h-.757l-.042-1.031a2.21 2.21 0 0 1-1.997 1.188m-.589-.925q.336.158.736.158t.725-.158q.337-.158.579-.431.251-.284.389-.662.136-.39.136-.852 0-.463-.136-.841a1.9 1.9 0 0 0-.389-.662 1.7 1.7 0 0 0-1.304-.6q-.4 0-.736.158-.326.157-.578.442a2 2 0 0 0-.379.662 2.5 2.5 0 0 0-.137.841q0 .463.137.852.136.378.379.662.252.273.578.431"/><rect width="337" height="3.473" x="51" y="213.505" rx="1.737"/><rect width="63.652" height="3.473" x="51" y="213.505" rx="1.737"/><path d="M37.98 243.482v-8.92h1.346v3.876h4.447v-3.876h1.35v8.92h-1.35v-3.889h-4.447v3.889zm10.946.149q-.636 0-1.15-.236a1.93 1.93 0 0 1-.814-.692q-.296-.453-.296-1.111 0-.566.218-.932.217-.366.587-.58t.828-.322q.458-.109.932-.165l.976-.114q.375-.048.544-.152.17-.105.17-.34v-.03q0-.571-.322-.885-.318-.313-.95-.313-.657 0-1.036.292-.375.287-.519.64l-1.224-.279q.219-.61.636-.984.423-.38.972-.549.549-.174 1.154-.174.4 0 .85.095.452.092.845.34.396.248.648.71.253.458.253 1.189v4.443h-1.272v-.914h-.052q-.126.253-.379.496a2 2 0 0 1-.649.405q-.395.162-.95.162m.283-1.046q.54 0 .924-.213.387-.214.588-.558.205-.348.205-.745v-.862a.7.7 0 0 1-.27.13q-.196.057-.449.101l-.492.074q-.24.03-.4.052a3.3 3.3 0 0 0-.694.161 1.2 1.2 0 0 0-.496.327q-.183.209-.183.557 0 .484.357.732.358.244.91.244m4.858.897v-8.92h1.303v3.314h.078q.114-.209.327-.483.214-.275.592-.479.38-.21 1.002-.209.81 0 1.446.409.636.41.998 1.181.366.77.366 1.855t-.362 1.86q-.36.772-.993 1.189a2.57 2.57 0 0 1-1.442.414q-.61 0-.997-.205a1.9 1.9 0 0 1-.601-.479 3.6 3.6 0 0 1-.336-.488h-.109v1.041zm1.277-3.345q0 .706.204 1.237.205.531.593.832.387.297.95.296.584 0 .975-.309.392-.314.592-.849.205-.536.205-1.207 0-.662-.2-1.189a1.8 1.8 0 0 0-.592-.832q-.393-.305-.98-.305-.566 0-.959.292a1.8 1.8 0 0 0-.588.814 3.4 3.4 0 0 0-.2 1.22m6.297 3.345v-6.69h1.303v6.69zm.658-7.723a.83.83 0 0 1-.584-.226.74.74 0 0 1-.24-.549q0-.323.24-.549a.82.82 0 0 1 .584-.231q.34 0 .58.231a.72.72 0 0 1 .243.549.73.73 0 0 1-.244.549.8.8 0 0 1-.579.226m5.52 1.033v1.045h-3.655v-1.045zm-2.675-1.603h1.303v6.329q0 .38.113.571.114.186.292.257.183.065.396.065.157 0 .275-.022l.183-.035.235 1.076a2 2 0 0 1-.322.087q-.21.048-.523.053a2.3 2.3 0 0 1-.958-.183 1.65 1.65 0 0 1-.72-.593q-.274-.4-.274-1.006zm9.021 3.236-1.18.209a1.4 1.4 0 0 0-.235-.431 1.2 1.2 0 0 0-.427-.335 1.55 1.55 0 0 0-.675-.131q-.553 0-.924.248-.37.244-.37.632 0 .336.248.54.249.205.802.335l1.063.244q.923.214 1.376.658t.453 1.154q0 .601-.348 1.072-.344.467-.963.732-.614.265-1.424.265-1.124 0-1.834-.479-.71-.483-.871-1.372l1.259-.191q.118.492.483.744.366.249.954.249.64 0 1.024-.266.383-.27.383-.658a.68.68 0 0 0-.235-.527q-.23-.213-.71-.322l-1.133-.248q-.936-.214-1.385-.68-.444-.466-.444-1.18 0-.593.33-1.037.331-.444.915-.693.584-.252 1.338-.252 1.085 0 1.707.47.623.467.823 1.25"/><g filter="url(#d)"><rect width="365" height="64.037" x="37" y="251.987" rx="14.018" shape-rendering="crispEdges"/><rect width="364.124" height="63.161" x="37.438" y="252.425" rx="13.58" shape-rendering="crispEdges"/><circle cx="66.789" cy="284.006" r="14.895"/><path d="M66.79 269.111a14.9 14.9 0 0 1 10.531 4.363 14.9 14.9 0 0 1 4.363 10.532m-22.207-.1q-.452 0-.81-.21a1.55 1.55 0 0 1-.567-.578 1.67 1.67 0 0 1-.21-.841q0-.463.21-.831.21-.378.567-.589.369-.21.831-.21.452 0 .81.21.357.21.567.579.21.367.21.841 0 .462-.21.841-.21.368-.578.578-.357.21-.82.21m-.052 4.09h-.778l4.53-7.254h.779zm-.694-6.224a1.1 1.1 0 0 0-.106.505q0 .294.106.515.115.21.304.336a.8.8 0 0 0 .453.127.77.77 0 0 0 .441-.127.83.83 0 0 0 .305-.336q.116-.22.116-.515t-.116-.505a.82.82 0 0 0-.746-.473.83.83 0 0 0-.453.126.9.9 0 0 0-.304.347m4.373 6.319q-.45 0-.81-.21a1.55 1.55 0 0 1-.567-.579 1.66 1.66 0 0 1-.21-.841q0-.462.21-.83.21-.38.568-.589.368-.21.83-.21.453 0 .81.21t.568.578q.21.369.21.841a1.7 1.7 0 0 1-.21.841q-.21.369-.579.579-.357.21-.82.21m-.441-.778a.83.83 0 0 0 .452.126.8.8 0 0 0 .441-.126.83.83 0 0 0 .305-.337 1.1 1.1 0 0 0 .116-.515 1.03 1.03 0 0 0-.116-.504.8.8 0 0 0-.305-.347.8.8 0 0 0-.441-.126.83.83 0 0 0-.452.126.9.9 0 0 0-.305.347q-.105.21-.105.504t.105.515a.94.94 0 0 0 .305.337m2.992.683v-.715a40 40 0 0 0 1.335-1.146q.63-.567 1.104-1.051.495-.505.778-.883.296-.379.42-.694a1.8 1.8 0 0 0 .127-.662q0-.442-.179-.768a1.25 1.25 0 0 0-.494-.515 1.35 1.35 0 0 0-.725-.189q-.569 0-.978.347-.41.346-.589.967l-.799-.2q.136-.578.484-.999a2.41 2.41 0 0 1 1.903-.904q.483 0 .893.168.41.158.715.452t.474.694q.178.4.178.862 0 .674-.4 1.367-.388.684-1.24 1.514-.2.19-.484.442a28 28 0 0 1-.599.536q-.315.284-.652.568h3.501v.809zm8.29.158q-.6 0-1.114-.221a2.6 2.6 0 0 1-.873-.641 2.6 2.6 0 0 1-.526-.978l.81-.189q.126.389.378.673.252.273.59.42.335.148.735.148.463 0 .82-.211.357-.21.568-.578t.21-.831q0-.462-.21-.82a1.4 1.4 0 0 0-.568-.557 1.6 1.6 0 0 0-.83-.21q-.243 0-.505.073-.252.074-.484.211a1.6 1.6 0 0 0-.378.294l-.705-.095v-3.9h4.038v.809h-3.228v2.324q.536-.505 1.409-.505.504 0 .925.179.43.178.746.505.326.315.495.757.178.43.178.935 0 .516-.189.957-.19.432-.536.757a2.5 2.5 0 0 1-.789.515 2.6 2.6 0 0 1-.967.179"/><path d="M61.023 290.103H73.29v-12.266H61.023zm32.91-11.097v-8.709h3.176q1.03 0 1.877.319a4 4 0 0 1 1.46.883q.614.564.944 1.361.332.798.332 1.779t-.332 1.791a3.9 3.9 0 0 1-.944 1.374 4.4 4.4 0 0 1-1.46.895 5.5 5.5 0 0 1-1.877.307zm1.496-1.337h1.607q.969 0 1.668-.368a2.6 2.6 0 0 0 1.08-1.043q.392-.687.392-1.607t-.392-1.594a2.56 2.56 0 0 0-1.092-1.055q-.699-.368-1.656-.368h-1.607zm7.617 1.337v-6.416h1.288l.061 1.055q.246-.54.675-.834a1.76 1.76 0 0 1 1.03-.306q.185 0 .356.024.172.024.307.086l-.16 1.374a1 1 0 0 0-.282-.062 2 2 0 0 0-.294-.024q-.736 0-1.153.491-.417.49-.417 1.361v3.251zm6.191-8.636a.8.8 0 0 1 .122.43q0 .233-.122.429a.9.9 0 0 1-.307.319.9.9 0 0 1-.429.11.9.9 0 0 1-.43-.11 1 1 0 0 1-.318-.319.86.86 0 0 1-.111-.429q0-.234.111-.43a.9.9 0 0 1 .318-.306.8.8 0 0 1 .43-.123q.233 0 .429.123a.8.8 0 0 1 .307.306m-1.435 8.636v-6.416h1.41v6.416zm2.934 0v-6.416h1.288l.049.884q.282-.491.785-.773a2.34 2.34 0 0 1 1.178-.295q.724 0 1.251.344.54.344.834.969.295.626.295 1.472v3.815h-1.411v-3.656q0-.785-.356-1.226-.344-.442-.969-.442-.441 0-.797.209a1.5 1.5 0 0 0-.54.564 1.7 1.7 0 0 0-.196.822v3.729zm7.2 0v-9.126h1.41v5.36l2.625-2.65h1.717l-2.882 2.846 3.177 3.57h-1.852l-2.785-3.239v3.239zm12.136.184q-.969 0-1.521-.552-.552-.565-.552-1.607v-3.3h-1.128v-1.141h1.128v-2.171h1.411v2.171h1.864v1.141h-1.864v3.153q0 .515.208.797.221.27.638.27.22 0 .479-.062.257-.073.478-.196l.319 1.067a2.3 2.3 0 0 1-.663.307 2.5 2.5 0 0 1-.797.123m2.573-.184v-9.126h1.411v3.483a2.1 2.1 0 0 1 .785-.699 2.34 2.34 0 0 1 1.104-.258q.724 0 1.251.344.54.344.834.969.295.626.295 1.472v3.815h-1.411v-3.656q0-.785-.356-1.226-.344-.442-.969-.442-.441 0-.797.209a1.5 1.5 0 0 0-.54.564 1.7 1.7 0 0 0-.196.822v3.729zm10.18.184q-.712 0-1.312-.246a3.2 3.2 0 0 1-1.031-.711 3.2 3.2 0 0 1-.686-1.067 3.9 3.9 0 0 1-.234-1.374q0-.724.234-1.337.245-.614.662-1.067a3.03 3.03 0 0 1 2.257-.982q.675 0 1.226.246.565.233.97.674.417.442.637 1.055.221.602.221 1.337v.417h-4.747q.061.565.295.982.245.404.625.625t.883.221q1.006 0 1.57-.895l1.239.478q-.22.503-.65.883a2.9 2.9 0 0 1-.981.564 3.5 3.5 0 0 1-1.178.197m-.11-5.643a1.54 1.54 0 0 0-.773.196 1.7 1.7 0 0 0-.564.552 2.2 2.2 0 0 0-.319.835h3.238a2.4 2.4 0 0 0-.282-.835 1.49 1.49 0 0 0-1.3-.748m8.414 5.459-2.135-6.416h1.472l1.362 4.686 1.435-4.686h1.264l1.422 4.686 1.386-4.686h1.423l-2.146 6.416h-1.325l-1.411-4.662-1.422 4.662zm10.335.184q-.49 0-.908-.148a2.2 2.2 0 0 1-.711-.417 1.89 1.89 0 0 1-.65-1.447q0-.614.319-1.067.331-.466.92-.724.588-.257 1.374-.257.43 0 .821.085.393.074.749.221v-.405q0-.429-.16-.748a1.2 1.2 0 0 0-.454-.515 1.3 1.3 0 0 0-.711-.184q-.441 0-.797.233a1.4 1.4 0 0 0-.528.65l-1.3-.294q.147-.54.527-.932.393-.393.933-.614a3.2 3.2 0 0 1 1.189-.221q.601 0 1.092.197.503.196.859.552.355.356.552.846.196.49.196 1.092v3.913h-1.288l-.049-.847q-.258.466-.773.748-.515.283-1.202.283m-.846-2.073q0 .27.147.49.147.209.405.331.27.123.625.123.455 0 .81-.196.356-.197.564-.528.209-.343.209-.772v-.148a4 4 0 0 0-.663-.208 2.7 2.7 0 0 0-.687-.086q-.637 0-1.03.27a.85.85 0 0 0-.38.724m8.121 2.073q-.969 0-1.521-.552-.552-.565-.552-1.607v-3.3h-1.128v-1.141h1.128v-2.171h1.411v2.171h1.864v1.141h-1.864v3.153q0 .515.209.797.22.27.637.27.221 0 .479-.062.257-.073.478-.196l.319 1.067a2.3 2.3 0 0 1-.662.307 2.5 2.5 0 0 1-.798.123m5.434 0q-.71 0-1.312-.246a3.2 3.2 0 0 1-1.717-1.778 3.9 3.9 0 0 1-.233-1.374q0-.724.233-1.337.245-.614.662-1.067a3.03 3.03 0 0 1 2.257-.982q.675 0 1.227.246.564.233.969.674.416.442.638 1.055.22.602.22 1.337v.417h-4.747q.061.565.295.982.245.404.625.625t.883.221q1.006 0 1.571-.895l1.238.478q-.22.503-.65.883a2.9 2.9 0 0 1-.981.564q-.551.197-1.178.197m-.11-5.643a1.54 1.54 0 0 0-.773.196q-.33.196-.564.552a2.2 2.2 0 0 0-.319.835h3.238a2.4 2.4 0 0 0-.282-.835 1.49 1.49 0 0 0-1.3-.748m4.257 5.459v-6.416h1.288l.061 1.055q.246-.54.675-.834a1.76 1.76 0 0 1 1.03-.306q.185 0 .356.024.172.024.307.086l-.16 1.374a1 1 0 0 0-.282-.062 2 2 0 0 0-.294-.024q-.736 0-1.153.491-.417.49-.417 1.361v3.251zm-82.334 18.157q-.599 0-1.114-.22a2.6 2.6 0 0 1-.873-.642 2.6 2.6 0 0 1-.525-.978l.81-.189q.125.389.378.673.252.273.588.421.337.147.736.147.463 0 .82-.21.358-.21.568-.579.21-.368.21-.83 0-.463-.21-.82a1.4 1.4 0 0 0-.568-.558 1.6 1.6 0 0 0-.83-.21q-.242 0-.505.074a2 2 0 0 0-.484.21 1.6 1.6 0 0 0-.378.294l-.704-.094v-3.901h4.037v.81h-3.228v2.323q.536-.504 1.409-.504.504 0 .925.178a2.2 2.2 0 0 1 .747.505q.326.316.494.757.179.43.179.936 0 .515-.19.956-.19.432-.536.757a2.5 2.5 0 0 1-.788.516 2.6 2.6 0 0 1-.968.178m7.453-.452q-.6.452-1.42.452t-1.419-.452q-.59-.462-.915-1.314-.315-.852-.315-2.019t.326-2.018q.325-.852.925-1.304.6-.463 1.419-.463t1.409.463q.6.452.915 1.304.326.85.326 2.018t-.326 2.019-.925 1.314m-2.377-.683q.4.347.968.347.567 0 .956-.347.4-.357.61-1.031.21-.672.211-1.619 0-.957-.211-1.619-.21-.672-.61-1.02a1.36 1.36 0 0 0-.956-.357q-.568 0-.968.357-.389.348-.599 1.02-.21.663-.21 1.619 0 .947.21 1.619.21.674.599 1.031m8.712.683q-.6.452-1.42.452t-1.419-.452q-.59-.462-.915-1.314-.315-.852-.315-2.019t.326-2.018q.325-.852.925-1.304.6-.463 1.419-.463t1.409.463q.6.452.915 1.304.326.85.326 2.018t-.326 2.019-.925 1.314m-2.377-.683q.4.347.968.347.567 0 .956-.347.4-.357.61-1.031.21-.672.211-1.619 0-.957-.211-1.619-.21-.672-.61-1.02a1.36 1.36 0 0 0-.956-.357q-.568 0-.968.357-.389.348-.599 1.02-.21.663-.21 1.619 0 .947.21 1.619.21.674.599 1.031m4.059 2.082 3.406-9.021h.789l-3.407 9.021zm4.753-1.104v-.715a41 41 0 0 0 1.335-1.146 24 24 0 0 0 1.104-1.052q.495-.505.778-.883.295-.378.421-.694.126-.326.126-.662 0-.442-.179-.768a1.25 1.25 0 0 0-.494-.515 1.35 1.35 0 0 0-.725-.189q-.569 0-.978.347t-.589.967l-.799-.2q.136-.578.484-.998a2.41 2.41 0 0 1 1.903-.905q.483 0 .893.169a2.08 2.08 0 0 1 1.188 1.146q.18.399.179.862 0 .672-.399 1.367-.39.683-1.241 1.514-.2.189-.484.441a28 28 0 0 1-.599.536q-.315.285-.652.568h3.501v.81zm9.962-.295q-.6.452-1.42.452t-1.419-.452q-.589-.462-.915-1.314-.315-.852-.315-2.019t.326-2.018q.325-.852.925-1.304.6-.463 1.419-.463t1.409.463q.6.452.915 1.304.326.85.326 2.018t-.326 2.019-.925 1.314m-2.376-.683q.399.347.967.347.567 0 .957-.347.399-.357.609-1.031.211-.672.211-1.619 0-.957-.211-1.619-.21-.672-.609-1.02a1.37 1.37 0 0 0-.957-.357q-.568 0-.967.357-.39.348-.6 1.02-.21.663-.21 1.619 0 .947.21 1.619.21.674.6 1.031m8.711.683q-.6.452-1.42.452t-1.419-.452q-.589-.462-.915-1.314-.315-.852-.315-2.019t.326-2.018q.325-.852.925-1.304.6-.463 1.419-.463t1.409.463q.6.452.915 1.304.326.85.326 2.018t-.326 2.019-.925 1.314m-2.376-.683q.399.347.967.347.567 0 .957-.347.399-.357.609-1.031.211-.672.211-1.619 0-.957-.211-1.619-.21-.672-.609-1.02a1.37 1.37 0 0 0-.957-.357q-.568 0-.967.357-.39.348-.6 1.02-.21.663-.21 1.619 0 .947.21 1.619.21.674.6 1.031m8.711.683q-.6.452-1.42.452t-1.419-.452q-.589-.462-.915-1.314-.315-.852-.315-2.019t.326-2.018q.325-.852.925-1.304.6-.463 1.419-.463t1.409.463q.6.452.915 1.304.326.85.326 2.018t-.326 2.019-.925 1.314m-2.376-.683q.399.347.967.347.567 0 .957-.347.399-.357.609-1.031.211-.672.211-1.619 0-.957-.211-1.619-.21-.672-.609-1.02a1.37 1.37 0 0 0-.957-.357q-.568 0-.967.357-.39.348-.6 1.02-.21.663-.21 1.619 0 .947.21 1.619.21.674.6 1.031m7.247.978v-7.465h.83l2.734 5.004 2.744-5.004h.799v7.465h-.862v-5.825l-2.345 4.269h-.694l-2.344-4.269v5.825zm8.748 0v-7.465h.883v6.655h3.322v.81z"/><circle cx="298.614" cy="284.005" r="11.828"/><circle cx="316.137" cy="284.005" r="11.828"/><rect width="23.656" height="23.656" x="321.832" y="272.177" rx="11.828"/><rect width="23.656" height="23.656" x="321.832" y="272.177" rx="11.828"/><path d="M328.648 285.095v-1.025h1.393v-1.411h1.052v1.411h1.393v1.025h-1.393v1.463h-1.052v-1.463zm7.831 2.033q-.518 0-.981-.184a2.1 2.1 0 0 1-.789-.552 2.1 2.1 0 0 1-.456-.912l1.157-.201q.114.358.385.561.273.201.658.201.28 0 .49-.105a.9.9 0 0 0 .342-.28.76.76 0 0 0 .123-.43.7.7 0 0 0-.123-.412.77.77 0 0 0-.351-.28 1.2 1.2 0 0 0-.508-.105h-.639v-1.069h.578q.28 0 .482-.096a.8.8 0 0 0 .324-.263.7.7 0 0 0 .114-.394.63.63 0 0 0-.228-.5q-.22-.201-.578-.201a1 1 0 0 0-.596.192q-.254.185-.359.552l-1.157-.201q.097-.482.395-.85.306-.368.762-.57.456-.21 1.007-.21.421 0 .78.123.369.122.64.35.272.22.42.526.15.306.149.675 0 .447-.219.797a1.5 1.5 0 0 1-.631.543q.464.175.728.552.271.376.271.885 0 .394-.166.736a1.8 1.8 0 0 1-.465.596 2.3 2.3 0 0 1-.7.385q-.395.141-.859.141"/><rect width="30.665" height="30.665" x="356.878" y="268.673" rx="10.076"/><rect width="30.665" height="30.665" x="356.878" y="268.673" rx="10.076"/><path fill-rule="evenodd" d="M372.862 284.626v3.985a.65.65 0 1 1-1.302 0v-3.985h-3.969a.658.658 0 0 1 0-1.309h3.962v-3.978a.657.657 0 0 1 1.309 0v3.978h3.969a.658.658 0 0 1 0 1.309z" clip-rule="evenodd"/></g><g filter="url(#e)"><rect width="365" height="64.037" x="37" y="319.529" rx="14.018" shape-rendering="crispEdges"/><rect width="364.124" height="63.161" x="37.438" y="319.967" rx="13.58" shape-rendering="crispEdges"/><circle cx="66.789" cy="351.547" r="14.895"/><path d="M66.79 336.653a14.9 14.9 0 0 1 10.531 4.362 14.894 14.894 0 0 1-10.532 25.427"/><path d="M59.272 351.448q-.453 0-.81-.21a1.55 1.55 0 0 1-.568-.578 1.67 1.67 0 0 1-.21-.841q0-.464.21-.831.21-.378.568-.589.368-.21.83-.21.453 0 .81.21t.568.578q.21.369.21.842 0 .462-.21.841-.21.368-.578.578-.358.21-.82.21m-.053 4.09h-.778l4.532-7.254h.778zm-.694-6.224q-.105.21-.105.505 0 .294.105.515.116.21.305.336a.83.83 0 0 0 .452.126.8.8 0 0 0 .442-.126.83.83 0 0 0 .305-.336q.115-.22.115-.515t-.115-.505a.82.82 0 0 0-.747-.473.83.83 0 0 0-.452.126.9.9 0 0 0-.305.347m4.374 6.319a1.56 1.56 0 0 1-.81-.211 1.55 1.55 0 0 1-.567-.578 1.67 1.67 0 0 1-.21-.841q0-.462.21-.831.21-.378.567-.588.369-.21.831-.211.452 0 .81.211.357.21.567.578t.21.841q0 .462-.21.841-.21.368-.578.578a1.6 1.6 0 0 1-.82.211m-.442-.778a.83.83 0 0 0 .453.126.83.83 0 0 0 .746-.463q.116-.22.116-.515 0-.294-.116-.505a.82.82 0 0 0-.746-.473.83.83 0 0 0-.453.126.93.93 0 0 0-.304.347q-.106.211-.106.505t.106.515q.115.21.304.337m5.358.841q-.599 0-1.114-.221a2.6 2.6 0 0 1-.873-.641 2.6 2.6 0 0 1-.525-.978l.81-.189q.125.388.378.673a1.75 1.75 0 0 0 1.324.567q.463 0 .82-.21a1.55 1.55 0 0 0 .568-.578q.21-.368.21-.831t-.21-.82a1.4 1.4 0 0 0-.568-.557 1.6 1.6 0 0 0-.83-.21q-.242 0-.505.073a2 2 0 0 0-.483.21 1.6 1.6 0 0 0-.379.295l-.704-.095v-3.9h4.037v.809h-3.228v2.324q.536-.505 1.41-.505.503 0 .924.179.432.178.747.504.326.316.494.757.18.432.179.936 0 .515-.19.957-.19.431-.536.757a2.5 2.5 0 0 1-.788.515 2.6 2.6 0 0 1-.968.179m7.453-.452q-.6.452-1.42.452t-1.42-.452q-.588-.463-.914-1.315-.315-.85-.315-2.018t.326-2.019.925-1.304q.6-.462 1.42-.462t1.408.462q.6.452.915 1.304.326.852.326 2.019t-.326 2.018q-.326.852-.925 1.315m-2.377-.684q.4.348.968.347.567 0 .957-.347.4-.357.61-1.03t.21-1.619q0-.957-.21-1.619-.21-.673-.61-1.02a1.36 1.36 0 0 0-.957-.358q-.568 0-.968.358-.389.347-.599 1.02-.21.662-.21 1.619 0 .946.21 1.619t.6 1.03"/><path d="M61.023 357.645H73.29v-12.267H61.023zm44.293-19.807-2.576 8.709h-1.521l-1.828-6.623-1.828 6.623H96.03l-2.576-8.709h1.595l1.79 6.722 1.84-6.722h1.448l1.852 6.722 1.779-6.722zm2.484 8.893q-.49 0-.908-.147a2.2 2.2 0 0 1-.711-.417 1.9 1.9 0 0 1-.651-1.447q0-.614.319-1.067.332-.466.92-.724.59-.258 1.374-.258.429 0 .822.086.393.074.748.221v-.405q0-.429-.159-.748a1.2 1.2 0 0 0-.454-.515 1.3 1.3 0 0 0-.712-.184q-.441 0-.797.233a1.4 1.4 0 0 0-.527.65l-1.3-.295q.147-.539.527-.932a2.8 2.8 0 0 1 .932-.613 3.2 3.2 0 0 1 1.19-.221q.602 0 1.092.196.502.196.858.552.355.357.552.847t.197 1.091v3.913h-1.288l-.049-.846q-.258.466-.773.748-.516.282-1.202.282m-.847-2.073q0 .27.148.491.147.208.404.331.27.123.626.123.453 0 .809-.196a1.5 1.5 0 0 0 .565-.528q.208-.343.208-.773v-.147a3.6 3.6 0 0 0-.662-.208 2.7 2.7 0 0 0-.687-.086q-.638 0-1.03.27a.84.84 0 0 0-.381.723m5.676 1.889v-9.126h1.411v9.126zm2.935 0v-9.126h1.41v5.361l2.625-2.65h1.718l-2.883 2.846 3.177 3.569h-1.852l-2.785-3.238v3.238zm-17.906 17.706q-.6.452-1.42.452t-1.419-.452q-.588-.463-.914-1.314-.316-.852-.316-2.019t.326-2.019.925-1.303q.6-.463 1.42-.463t1.408.463q.6.452.915 1.303.327.852.326 2.019 0 1.167-.326 2.019-.325.851-.925 1.314m-2.376-.683q.4.347.967.347.569 0 .957-.347.4-.358.61-1.031t.21-1.619q0-.957-.21-1.619-.21-.673-.61-1.02a1.36 1.36 0 0 0-.957-.357 1.4 1.4 0 0 0-.967.357q-.39.347-.6 1.02-.21.663-.21 1.619 0 .947.21 1.619.21.673.6 1.031m4.058 2.081 3.407-9.021h.788l-3.406 9.021zm6.643-1.104v-6.297l-1.724.967-.347-.694 2.229-1.23h.704v7.254zm6.635-.294q-.6.452-1.42.452t-1.419-.452q-.589-.463-.915-1.314-.315-.852-.315-2.019t.326-2.019.925-1.303q.6-.463 1.419-.463t1.409.463q.6.452.915 1.303.326.852.326 2.019t-.326 2.019-.925 1.314m-2.376-.683q.399.347.967.347.567 0 .957-.347.399-.358.609-1.031.211-.672.211-1.619 0-.957-.211-1.619-.21-.673-.609-1.02a1.37 1.37 0 0 0-.957-.357q-.568 0-.967.357-.39.347-.6 1.02-.21.663-.21 1.619 0 .947.21 1.619.21.673.6 1.031m8.711.683q-.6.452-1.42.452t-1.419-.452q-.589-.463-.915-1.314-.315-.852-.315-2.019t.326-2.019.925-1.303q.6-.463 1.419-.463t1.409.463q.6.452.915 1.303.326.852.326 2.019t-.326 2.019-.925 1.314m-2.376-.683q.399.347.967.347.567 0 .957-.347.399-.358.609-1.031.211-.672.211-1.619 0-.957-.211-1.619-.21-.673-.609-1.02a1.37 1.37 0 0 0-.957-.357q-.568 0-.967.357-.39.347-.6 1.02-.21.663-.21 1.619 0 .947.21 1.619.21.673.6 1.031m8.711.683q-.6.452-1.42.452t-1.419-.452q-.589-.463-.915-1.314-.315-.852-.315-2.019t.326-2.019.925-1.303q.6-.463 1.419-.463t1.409.463q.6.452.915 1.303.326.852.326 2.019t-.326 2.019-.925 1.314m-2.376-.683q.399.347.967.347.567 0 .957-.347.399-.358.609-1.031.211-.672.211-1.619 0-.957-.211-1.619-.21-.673-.609-1.02a1.37 1.37 0 0 0-.957-.357q-.568 0-.967.357-.39.347-.6 1.02-.21.663-.21 1.619 0 .947.21 1.619.21.673.6 1.031m8.711.683q-.6.452-1.42.452t-1.419-.452q-.589-.463-.915-1.314-.315-.852-.315-2.019t.326-2.019.925-1.303q.6-.463 1.419-.463t1.409.463q.6.452.915 1.303.326.852.326 2.019t-.326 2.019-.925 1.314m-2.376-.683q.399.347.967.347.567 0 .957-.347.399-.358.609-1.031.211-.672.211-1.619 0-.957-.211-1.619-.21-.673-.609-1.02a1.37 1.37 0 0 0-.957-.357q-.568 0-.967.357-.39.347-.6 1.02-.21.663-.21 1.619 0 .947.21 1.619.21.673.6 1.031m9.307 1.135q-.589 0-1.093-.2a2.6 2.6 0 0 1-.873-.588 2.3 2.3 0 0 1-.536-.894l.831-.263q.21.546.641.852.441.305 1.02.305.452 0 .809-.179.369-.19.568-.505.21-.326.21-.725 0-.516-.357-.841-.347-.337-1.009-.484l-.463-.105q-1.03-.231-1.545-.757a1.78 1.78 0 0 1-.516-1.293q0-.463.169-.842.178-.388.494-.672.315-.285.725-.431.421-.159.904-.158.569 0 1.041.21a2.3 2.3 0 0 1 1.335 1.462l-.83.262q-.21-.557-.61-.851a1.53 1.53 0 0 0-.936-.295q-.41 0-.725.169-.315.157-.494.441a1.15 1.15 0 0 0-.179.642q0 .483.347.799.346.304 1.104.483l.463.105q.998.232 1.482.778.494.547.494 1.325 0 .494-.189.915a2.1 2.1 0 0 1-.515.715q-.327.294-.778.462a3 3 0 0 1-.989.158m5.553-.158v-6.655h-2.282v-.809h5.447v.809h-2.282v6.655zm4.492 0v-7.464h4.3v.788h-3.417v2.397h3.123v.799h-3.123v2.681h3.522v.799zm5.893 0v-7.464h2.061q.852 0 1.462.283.62.285.946.81t.326 1.262q0 .714-.347 1.24a2.23 2.23 0 0 1-.988.81q-.642.284-1.514.284a7 7 0 0 1-.505-.021 9 9 0 0 1-.557-.063v2.859zm.884-6.676v3.028q.252.042.525.063.284.021.516.021.935 0 1.45-.399.516-.41.516-1.157 0-.483-.221-.83a1.44 1.44 0 0 0-.631-.537q-.41-.189-.988-.189zm7.297 6.834q-.589 0-1.094-.2a2.6 2.6 0 0 1-.873-.588 2.3 2.3 0 0 1-.536-.894l.831-.263q.21.546.641.852.442.305 1.02.305.451 0 .81-.179.368-.19.567-.505.211-.326.211-.725 0-.516-.358-.841-.347-.337-1.009-.484l-.463-.105q-1.03-.231-1.545-.757a1.78 1.78 0 0 1-.515-1.293q0-.463.168-.842.179-.388.494-.672t.725-.431a2.5 2.5 0 0 1 .905-.158q.567 0 1.04.21a2.3 2.3 0 0 1 1.336 1.462l-.831.262q-.21-.557-.61-.851a1.53 1.53 0 0 0-.935-.295q-.411 0-.726.169-.315.157-.494.441a1.15 1.15 0 0 0-.179.642q0 .483.347.799.346.304 1.104.483l.463.105q.999.232 1.482.778.494.547.494 1.325 0 .494-.189.915a2.1 2.1 0 0 1-.515.715q-.326.294-.778.462a3 3 0 0 1-.988.158"/><circle cx="316.137" cy="351.547" r="11.828"/><circle cx="333.66" cy="351.547" r="11.828"/><rect width="30.665" height="30.665" x="356.878" y="336.215" rx="10.076"/><rect width="30.665" height="30.665" x="356.878" y="336.215" rx="10.076"/><path fill-rule="evenodd" d="M372.862 352.168v3.985a.65.65 0 1 1-1.302 0v-3.985h-3.969a.659.659 0 0 1 0-1.309h3.962v-3.978a.658.658 0 0 1 1.309 0v3.978h3.969a.658.658 0 0 1 0 1.309z" clip-rule="evenodd"/></g><g filter="url(#f)"><rect width="365" height="64.037" x="37" y="387.07" rx="14.018" shape-rendering="crispEdges"/><rect width="364.124" height="63.161" x="37.438" y="387.508" rx="13.58" shape-rendering="crispEdges"/><path d="M70.693 415.8a.835.835 0 0 1 1.121 0 .7.7 0 0 1 0 1.042l-5.952 5.536a.837.837 0 0 1-1.121 0l-2.977-2.768a.7.7 0 0 1 0-1.042.835.835 0 0 1 1.121 0l2.416 2.246z"/><circle cx="66.789" cy="419.089" r="14.895"/><path d="M66.79 404.194a14.9 14.9 0 0 1 10.531 4.363 14.894 14.894 0 1 1-10.532-4.363z"/><path d="M61.023 425.186H73.29V412.92H61.023zm32.91-11.097v-8.709h1.447l2.895 5.336 2.907-5.336h1.386v8.709h-1.484v-6.011l-2.282 4.195h-1.104l-2.281-4.195v6.011zm13.232.184q-.712 0-1.313-.245a3.23 3.23 0 0 1-1.717-1.779 3.9 3.9 0 0 1-.233-1.374q0-.723.233-1.337.246-.613.662-1.067a3.1 3.1 0 0 1 1.006-.724 3.05 3.05 0 0 1 1.251-.257q.675 0 1.227.245.564.232.969.675.417.441.638 1.055.22.6.221 1.337v.417h-4.747q.06.564.294.981.245.405.626.625.38.221.883.221 1.005 0 1.57-.895l1.239.478q-.222.503-.65.883a2.9 2.9 0 0 1-.982.565q-.552.196-1.177.196m-.111-5.643q-.429 0-.772.197a1.74 1.74 0 0 0-.565.552 2.2 2.2 0 0 0-.319.834h3.239a2.3 2.3 0 0 0-.282-.834 1.49 1.49 0 0 0-1.301-.749m7.028 5.643q-.638 0-1.19-.258a3 3 0 0 1-.944-.711 3.4 3.4 0 0 1-.638-1.067 3.9 3.9 0 0 1-.221-1.325q0-.724.233-1.349t.65-1.092.969-.724a2.9 2.9 0 0 1 1.215-.257q.637 0 1.165.27.528.269.871.76v-3.557h1.41v9.126h-1.287l-.062-1.03a2.6 2.6 0 0 1-.907.895 2.5 2.5 0 0 1-1.264.319m-.65-1.546q.417.27.944.27a1.7 1.7 0 0 0 .945-.27 1.9 1.9 0 0 0 .65-.76q.246-.478.245-1.08 0-.612-.245-1.091a1.8 1.8 0 0 0-.65-.749 1.65 1.65 0 0 0-.945-.282q-.527 0-.944.282-.417.27-.662.749a2.45 2.45 0 0 0-.233 1.091q0 .602.233 1.08.245.478.662.76m7.125-7.274a.8.8 0 0 1 .122.43.8.8 0 0 1-.122.429.9.9 0 0 1-.307.319.86.86 0 0 1-.429.11.86.86 0 0 1-.43-.11 1 1 0 0 1-.319-.319.9.9 0 0 1-.11-.429q0-.234.11-.43a.9.9 0 0 1 .319-.306.8.8 0 0 1 .43-.123q.232 0 .429.123a.8.8 0 0 1 .307.306m-1.436 8.636v-6.415h1.411v6.415zm5.585.184q-.969 0-1.521-.552-.552-.564-.552-1.607v-3.3h-1.129v-1.14h1.129v-2.171h1.41v2.171h1.865v1.14h-1.865v3.153q0 .515.209.797.22.27.638.27.22 0 .478-.061.258-.074.478-.197l.319 1.068q-.281.196-.662.306a2.5 2.5 0 0 1-.797.123m4.464 0q-.49 0-.908-.147a2.2 2.2 0 0 1-.711-.417 1.9 1.9 0 0 1-.479-.638 1.9 1.9 0 0 1-.172-.81q0-.613.319-1.067.332-.466.92-.724.59-.257 1.374-.257.429 0 .822.086.393.073.748.22v-.404a1.66 1.66 0 0 0-.159-.749 1.2 1.2 0 0 0-.454-.515 1.3 1.3 0 0 0-.712-.184q-.441 0-.797.233a1.4 1.4 0 0 0-.527.65l-1.301-.294q.148-.54.528-.932.392-.392.932-.614a3.2 3.2 0 0 1 1.19-.22q.601 0 1.092.196.502.196.858.552t.552.846q.197.49.197 1.092v3.913h-1.288l-.049-.846q-.258.466-.773.748-.516.282-1.202.282m-.847-2.073q0 .27.147.491.148.208.405.331.27.122.626.122.453 0 .809-.196.357-.197.565-.527a1.46 1.46 0 0 0 .208-.773v-.147a3.6 3.6 0 0 0-.662-.209 2.7 2.7 0 0 0-.687-.086q-.638 0-1.03.27a.84.84 0 0 0-.381.724m8.122 2.073q-.969 0-1.521-.552-.552-.564-.552-1.607v-3.3h-1.129v-1.14h1.129v-2.171h1.41v2.171h1.865v1.14h-1.865v3.153q0 .515.209.797.22.27.638.27.22 0 .478-.061.257-.074.479-.197l.319 1.068q-.283.196-.663.306a2.5 2.5 0 0 1-.797.123m5.434 0q-.711 0-1.313-.245a3.23 3.23 0 0 1-1.717-1.779 3.9 3.9 0 0 1-.233-1.374q0-.723.233-1.337a3.5 3.5 0 0 1 .663-1.067 3 3 0 0 1 1.005-.724 3.05 3.05 0 0 1 1.252-.257q.674 0 1.226.245.564.232.969.675.417.441.638 1.055.22.6.221 1.337v.417h-4.747q.061.564.294.981.245.405.626.625.38.221.883.221 1.005 0 1.57-.895l1.239.478q-.22.503-.65.883a2.9 2.9 0 0 1-.981.565q-.552.196-1.178.196m-.11-5.643q-.43 0-.773.197a1.7 1.7 0 0 0-.564.552 2.2 2.2 0 0 0-.319.834h3.238a2.3 2.3 0 0 0-.282-.834 1.49 1.49 0 0 0-1.3-.749m-45.793 23.617q-.61 0-1.125-.211a2.4 2.4 0 0 1-.873-.62 2.6 2.6 0 0 1-.525-.999l.809-.189q.2.588.641.915.442.315 1.052.315.462 0 .83-.179t.579-.494.21-.715q0-.42-.21-.725a1.3 1.3 0 0 0-.579-.473 2.1 2.1 0 0 0-.872-.169h-.789v-.788h.757q.473 0 .81-.158.347-.158.536-.441a1.2 1.2 0 0 0 .19-.673q0-.348-.19-.61a1.16 1.16 0 0 0-.494-.421 1.7 1.7 0 0 0-.736-.147q-.579 0-.999.316-.41.304-.589.862l-.799-.19q.137-.546.473-.935.348-.4.852-.621t1.104-.22q.483 0 .894.147.42.137.725.399a1.76 1.76 0 0 1 .641 1.378q0 .567-.284.998-.283.432-.82.673.589.21.926.684.336.473.336 1.125 0 .452-.19.851-.187.39-.525.694a2.5 2.5 0 0 1-.788.463 3 3 0 0 1-.978.158m7.606-.453q-.599.453-1.419.453t-1.419-.453q-.59-.462-.915-1.314-.315-.851-.316-2.018.001-1.167.326-2.019.326-.851.926-1.304.599-.462 1.419-.462t1.409.462q.598.452.915 1.304.325.852.325 2.019 0 1.166-.325 2.018-.326.852-.926 1.314m-2.376-.683q.4.347.967.347.569 0 .957-.347.4-.358.61-1.03.21-.674.21-1.619 0-.957-.21-1.62-.21-.672-.61-1.019a1.36 1.36 0 0 0-.957-.358q-.567 0-.967.358-.389.347-.599 1.019-.21.663-.21 1.62 0 .945.21 1.619.21.672.599 1.03m4.059 2.082 3.406-9.021h.789l-3.407 9.021zm7.118-.946q-.609 0-1.125-.211a2.4 2.4 0 0 1-.872-.62 2.55 2.55 0 0 1-.526-.999l.809-.189q.2.588.642.915.441.315 1.051.315.463 0 .831-.179t.578-.494.21-.715q0-.42-.21-.725a1.3 1.3 0 0 0-.578-.473 2.1 2.1 0 0 0-.873-.169h-.788v-.788h.757q.473 0 .809-.158.347-.158.536-.441.19-.295.19-.673 0-.348-.19-.61a1.17 1.17 0 0 0-.494-.421 1.7 1.7 0 0 0-.736-.147q-.578 0-.999.316-.41.304-.588.862l-.799-.19q.136-.546.473-.935a2.4 2.4 0 0 1 .851-.621 2.7 2.7 0 0 1 1.104-.22q.484 0 .894.147.42.137.725.399a1.76 1.76 0 0 1 .642 1.378q0 .567-.284.998a1.87 1.87 0 0 1-.82.673q.588.21.925.684.336.473.336 1.125 0 .452-.189.851-.189.39-.526.694a2.5 2.5 0 0 1-.788.463 3 3 0 0 1-.978.158m7.607-.453q-.6.453-1.42.453t-1.419-.453q-.589-.462-.915-1.314-.315-.851-.315-2.018t.326-2.019.925-1.304q.6-.462 1.419-.462t1.409.462q.6.452.915 1.304.326.852.326 2.019 0 1.166-.326 2.018t-.925 1.314m-2.376-.683q.399.347.967.347.567 0 .957-.347.399-.358.609-1.03.211-.674.211-1.619 0-.957-.211-1.62-.21-.672-.609-1.019a1.36 1.36 0 0 0-.957-.358q-.568 0-.967.358-.39.347-.6 1.019-.21.663-.21 1.62 0 .945.21 1.619.21.672.6 1.03m7.247.978v-7.465h.83l2.734 5.005 2.744-5.005h.799v7.465h-.862v-5.825l-2.345 4.269h-.694l-2.344-4.269v5.825zm8.748 0v-7.465h.883v7.465zm2.525 0v-7.465h.778l4.164 5.982v-5.982h.862v7.465h-.778l-4.164-5.983v5.983z"/><circle cx="333.66" cy="419.089" r="11.828"/><rect width="30.665" height="30.665" x="356.878" y="403.756" rx="10.076"/><rect width="30.665" height="30.665" x="356.878" y="403.756" rx="10.076"/><path fill-rule="evenodd" d="M371.049 422.594a.82.82 0 0 1-.606-.276l-2.323-2.561a1.01 1.01 0 0 1 0-1.334.8.8 0 0 1 1.211-.001l1.718 1.893 4.041-4.454a.8.8 0 0 1 1.211 0c.335.369.335.967 0 1.336l-4.646 5.121a.82.82 0 0 1-.606.276" clip-rule="evenodd"/></g><path d="M46.64 673v-23.12h-8v-5.28H60.6v5.28h-8V673zm14.569 0v-21.12h5.16l.2 3.2q.8-1.68 2.16-2.56 1.36-.92 3.2-.92.56 0 1.12.12.56.08 1 .24l-.6 5.52a3.5 3.5 0 0 0-.92-.2q-.44-.08-.92-.08-2.32 0-3.56 1.44-1.24 1.4-1.24 4V673zm20.95.6q-1.641 0-3-.48a7.6 7.6 0 0 1-2.4-1.36 6.7 6.7 0 0 1-1.56-2.12q-.56-1.2-.56-2.64 0-2 1.08-3.52t3.04-2.36q1.959-.88 4.56-.88 1.32 0 2.48.24 1.2.24 2.32.68v-1.24q0-1.8-1.04-2.92-1-1.12-2.76-1.12-1.32 0-2.4.68a3.46 3.46 0 0 0-1.52 1.84l-5-1a6.95 6.95 0 0 1 1.72-3.2q1.32-1.4 3.2-2.16t4.08-.76q2.04 0 3.72.64a8.1 8.1 0 0 1 2.88 1.84 7.9 7.9 0 0 1 1.88 2.84q.68 1.6.68 3.6V673h-5l-.16-2.48q-.84 1.36-2.44 2.24-1.6.84-3.8.84m-2-6.88q0 1.12.92 1.84t2.44.72q1.32 0 2.36-.56a4.3 4.3 0 0 0 1.64-1.52q.6-1 .6-2.2v-.2a10.3 10.3 0 0 0-1.88-.56 8.5 8.5 0 0 0-2-.24q-1.881 0-3 .76-1.08.72-1.08 1.96m26.662 6.88q-2.28 0-4.24-.8-1.92-.84-3.36-2.32a10.9 10.9 0 0 1-2.2-3.48q-.8-2.04-.8-4.4 0-2.4.8-4.44.84-2.08 2.28-3.6a10.3 10.3 0 0 1 3.44-2.4q1.96-.88 4.24-.88t4.2.88q1.92.84 3.24 2.4a8.6 8.6 0 0 1 1.88 3.64l-5.32 1.04q-.6-1.36-1.68-2.12a4 4 0 0 0-2.44-.8q-1.44 0-2.56.8-1.08.8-1.72 2.24-.64 1.4-.64 3.16t.6 3.12q.64 1.36 1.76 2.16 1.12.76 2.56.76t2.6-.76 1.72-2.16l5.32 1.04a8.2 8.2 0 0 1-1.96 3.68 9.4 9.4 0 0 1-3.4 2.4q-2 .84-4.32.84m12.052-.6v-29.84h5.48v17.32l7.84-8.6h6.56l-8.8 9.36 9.76 11.76h-7.08l-8.28-10.52V673zM47.36 721v-11.04l-9.92-17.36h6.64l6.36 11.96 6.32-11.96h6.48l-9.92 17.36V721zm24.165.6q-2.36 0-4.36-.84a10.8 10.8 0 0 1-3.48-2.32 11.1 11.1 0 0 1-2.32-3.56q-.8-2.04-.8-4.44t.84-4.4a11.1 11.1 0 0 1 2.32-3.56 10.9 10.9 0 0 1 3.52-2.36q2.04-.84 4.44-.84 2.36 0 4.36.84a10.5 10.5 0 0 1 3.48 2.36q1.48 1.48 2.28 3.52.84 2 .84 4.4t-.84 4.44a10.8 10.8 0 0 1-2.36 3.56 10.4 10.4 0 0 1-3.52 2.36q-2 .84-4.4.84m-2.64-5.84q1.2.8 2.72.8t2.72-.8 1.88-2.16q.72-1.4.72-3.16t-.72-3.12q-.68-1.4-1.88-2.2t-2.72-.8-2.72.8-1.92 2.2q-.68 1.36-.68 3.12t.68 3.16q.72 1.36 1.92 2.16m25.96 5.84q-2.88 0-5.04-1.2-2.119-1.24-3.32-3.48-1.159-2.28-1.16-5.36v-11.68h5.6v11.8q0 2.28 1.08 3.6 1.08 1.28 2.92 1.28 1.841 0 2.92-1.28 1.08-1.32 1.08-3.6v-11.8h5.601v11.68q0 2.28-.68 4.12t-1.96 3.16a8.8 8.8 0 0 1-3.08 2.04q-1.76.72-3.96.72m13.153-.6v-21.12h5.16l.2 3.2q.8-1.68 2.16-2.56 1.36-.92 3.2-.92.56 0 1.12.12.56.08 1 .24l-.6 5.52a3.6 3.6 0 0 0-.92-.2q-.44-.08-.92-.08-2.32 0-3.56 1.44-1.24 1.4-1.24 4V721zm22.618 0v-28.4h9.12q3.48 0 5.96 1.16 2.52 1.12 3.84 3.28 1.36 2.12 1.36 5.16 0 2.16-.8 3.92a8.9 8.9 0 0 1-2.28 3q-1.48 1.24-3.56 1.92-2.04.68-4.56.68-1.48 0-3.2-.28V721zm5.88-23.36v8.8q1.6.24 2.96.24 2.559 0 3.96-1.16 1.44-1.16 1.44-3.36 0-2.16-1.36-3.32-1.36-1.2-3.88-1.2zM153.201 721v-21.12h5.16l.2 3.2q.8-1.68 2.16-2.56 1.36-.92 3.2-.92.56 0 1.12.12.56.08 1 .24l-.6 5.52a3.5 3.5 0 0 0-.92-.2q-.44-.08-.92-.08-2.32 0-3.56 1.44-1.24 1.4-1.24 4V721zm24.512.6q-2.36 0-4.36-.84a10.7 10.7 0 0 1-3.48-2.32 11.1 11.1 0 0 1-2.32-3.56q-.8-2.04-.8-4.44t.84-4.4a11.1 11.1 0 0 1 2.32-3.56 10.9 10.9 0 0 1 3.52-2.36q2.04-.84 4.44-.84 2.36 0 4.36.84a10.5 10.5 0 0 1 3.48 2.36q1.479 1.48 2.28 3.52.84 2 .839 4.4 0 2.4-.839 4.44a10.8 10.8 0 0 1-2.36 3.56 10.4 10.4 0 0 1-3.52 2.36q-2 .84-4.4.84m-2.64-5.84q1.2.8 2.72.8t2.72-.8 1.88-2.16q.72-1.4.72-3.16t-.72-3.12q-.68-1.4-1.88-2.2t-2.72-.8-2.72.8-1.92 2.2q-.68 1.36-.68 3.12t.68 3.16q.72 1.36 1.92 2.16m28.956 3.84q-1.64.8-3.64.8a9 9 0 0 1-3.76-.8 9.4 9.4 0 0 1-3-2.2 10.7 10.7 0 0 1-2-3.32q-.72-1.92-.72-4.12 0-2.28.72-4.2.76-1.96 2.08-3.4a9.9 9.9 0 0 1 3.12-2.24 9.1 9.1 0 0 1 3.88-.84q2.04 0 3.68.84 1.64.8 2.72 2.36l.12-2.6h5.16v18.6q0 2.44-.8 4.44-.76 2-2.2 3.44t-3.44 2.2q-1.96.8-4.36.8-2.36 0-4.24-.76a9.9 9.9 0 0 1-3.28-2.04 9.7 9.7 0 0 1-2.2-3.08l5.36-1.32a5.2 5.2 0 0 0 1.84 1.8q1.16.68 2.6.68 1.56 0 2.68-.72 1.16-.68 1.8-1.96.64-1.24.64-2.92v-1.72a7.7 7.7 0 0 1-2.76 2.28m-4.92-4.88q1.16.72 2.64.72t2.6-.72a5.54 5.54 0 0 0 1.84-2q.68-1.28.68-2.88t-.68-2.84q-.68-1.28-1.84-2-1.12-.76-2.6-.76t-2.64.76q-1.12.72-1.8 2-.68 1.24-.68 2.84t.68 2.88a5.66 5.66 0 0 0 1.8 2m16.756 6.28v-21.12h5.16l.2 3.2q.8-1.68 2.16-2.56 1.36-.92 3.2-.92.56 0 1.12.12.56.08 1 .24l-.6 5.52a3.5 3.5 0 0 0-.92-.2q-.44-.08-.92-.08-2.32 0-3.56 1.44-1.24 1.4-1.24 4V721zm24.352.6q-2.36 0-4.36-.8a10.4 10.4 0 0 1-3.4-2.32 10.9 10.9 0 0 1-2.24-3.56q-.8-2.08-.8-4.52 0-2.36.8-4.4t2.2-3.52q1.44-1.52 3.36-2.36t4.16-.84q2.319 0 4.2.8a9.2 9.2 0 0 1 3.28 2.28q1.36 1.48 2.08 3.52.76 2.04.76 4.56v1.4h-15.16q.36 2.36 1.72 3.72 1.36 1.32 3.44 1.32 1.44 0 2.6-.68 1.2-.68 1.96-1.96l5 1.6a8.1 8.1 0 0 1-2.16 3.08q-1.44 1.28-3.36 2-1.92.68-4.08.68m-.28-18q-1.84 0-3.12 1.2-1.24 1.2-1.64 3.28h9.32q-.321-2.08-1.56-3.28-1.2-1.2-3-1.2m20.63 18q-2.241 0-4.08-.72a8.8 8.8 0 0 1-3.08-2.04 7.2 7.2 0 0 1-1.72-3.12l5.04-1.08q.399 1.24 1.44 1.96t2.48.72q1.36 0 2.24-.6t.88-1.64q0-.88-.8-1.44-.76-.6-2.56-.92l-1.12-.2q-3.44-.6-5.24-2.24-1.76-1.64-1.76-4.16 0-2 1.04-3.52 1.04-1.56 2.88-2.44t4.24-.88q2.12 0 3.84.72 1.76.68 2.92 1.96t1.6 3.08l-5 1.04q-.4-1.2-1.32-1.88-.88-.68-2.08-.68-1.24 0-2.04.6t-.8 1.52q0 .8.76 1.36.8.52 2.68.84l1.12.2q3.4.6 5.2 2.28 1.8 1.64 1.8 4.2 0 1.56-.64 2.84-.6 1.28-1.76 2.24t-2.72 1.48-3.44.52m18.648 0q-2.24 0-4.08-.72a8.8 8.8 0 0 1-3.08-2.04 7.2 7.2 0 0 1-1.72-3.12l5.04-1.08q.4 1.24 1.44 1.96t2.48.72q1.36 0 2.24-.6t.88-1.64q0-.88-.8-1.44-.76-.6-2.56-.92l-1.12-.2q-3.44-.6-5.24-2.24-1.76-1.64-1.76-4.16 0-2 1.04-3.52 1.04-1.56 2.88-2.44t4.24-.88q2.12 0 3.84.72 1.76.68 2.92 1.96t1.6 3.08l-5 1.04q-.4-1.2-1.32-1.88-.88-.68-2.08-.68-1.24 0-2.04.6t-.8 1.52q0 .8.76 1.36.8.52 2.68.84l1.12.2q3.4.6 5.2 2.28 1.8 1.64 1.8 4.2 0 1.56-.64 2.84-.6 1.28-1.76 2.24t-2.72 1.48-3.44.52M37.98 754v-9.94H44v1.47h-4.34v2.604h3.92v1.47h-3.92v2.926h4.48V754zm9.618 0-2.8-7.322h1.764l1.876 5.642 1.89-5.642h1.708l-2.8 7.322zm8.684.21a3.9 3.9 0 0 1-1.498-.28 3.7 3.7 0 0 1-1.96-2.03 4.5 4.5 0 0 1-.266-1.568q0-.826.266-1.526a3.9 3.9 0 0 1 .756-1.218q.49-.532 1.148-.826a3.5 3.5 0 0 1 1.428-.294q.77 0 1.4.28.645.266 1.106.77.476.504.728 1.204.252.686.252 1.526v.476h-5.418q.069.644.336 1.12.279.462.714.714t1.008.252q1.147 0 1.792-1.022l1.414.546a2.9 2.9 0 0 1-.742 1.008q-.476.42-1.12.644a4 4 0 0 1-1.344.224m-.126-6.44q-.49 0-.882.224a2 2 0 0 0-.644.63 2.5 2.5 0 0 0-.364.952h3.696a2.7 2.7 0 0 0-.322-.952 1.7 1.7 0 0 0-1.484-.854m4.858 6.23v-7.322h1.47l.07 1.204q.28-.616.77-.952.504-.35 1.177-.35.21 0 .405.028.197.028.35.098l-.181 1.568a1.2 1.2 0 0 0-.323-.07 2 2 0 0 0-.335-.028q-.84 0-1.317.56-.476.56-.476 1.554V754zm6.6 2.912q-.35 0-.658-.07a2.3 2.3 0 0 1-.574-.224l.35-1.274q.153.07.35.112.195.056.378.056.42 0 .728-.238.322-.238.532-.77l.224-.574-2.982-7.252h1.764l1.974 5.474 1.792-5.474H73.2l-3.108 8.204q-.407 1.05-1.022 1.54-.603.49-1.456.49m9.524-2.702q-.728 0-1.358-.294a3.4 3.4 0 0 1-1.078-.812 3.9 3.9 0 0 1-.728-1.218 4.4 4.4 0 0 1-.252-1.512q0-.826.266-1.54.265-.714.742-1.246.476-.532 1.106-.826.644-.294 1.386-.294.727 0 1.33.308.601.308.994.868v-4.06h1.61V754h-1.47l-.07-1.176a2.94 2.94 0 0 1-1.036 1.022q-.645.364-1.442.364m-.742-1.764q.475.308 1.078.308.601 0 1.078-.308.475-.322.742-.868.28-.546.28-1.232 0-.7-.28-1.246a2.07 2.07 0 0 0-.742-.854 1.9 1.9 0 0 0-1.078-.322q-.602 0-1.078.322a2.17 2.17 0 0 0-.756.854 2.8 2.8 0 0 0-.266 1.246q0 .686.266 1.232.279.546.756.868m8.733 1.764q-.56 0-1.035-.168a2.5 2.5 0 0 1-.812-.476 2.16 2.16 0 0 1-.742-1.652q0-.7.363-1.218.378-.532 1.05-.826t1.569-.294q.49 0 .938.098.447.084.854.252v-.462q0-.49-.182-.854a1.4 1.4 0 0 0-.519-.588 1.5 1.5 0 0 0-.811-.21q-.505 0-.91.266-.407.266-.602.742l-1.485-.336q.168-.616.602-1.064a3.2 3.2 0 0 1 1.065-.7q.63-.252 1.358-.252.685 0 1.246.224.573.224.98.63.405.406.63.966.223.56.223 1.246V754h-1.47l-.055-.966q-.294.532-.883.854-.588.322-1.372.322m-.966-2.366q0 .308.169.56.168.238.462.378.308.14.713.14.519 0 .924-.224.406-.224.645-.602.238-.391.238-.882v-.168a4 4 0 0 0-.756-.238 3 3 0 0 0-.785-.098q-.728 0-1.175.308a.96.96 0 0 0-.434.826m7.226 5.068q-.35 0-.658-.07a2.3 2.3 0 0 1-.574-.224l.35-1.274q.155.07.35.112.196.056.378.056.42 0 .728-.238.322-.238.532-.77l.224-.574-2.982-7.252h1.764l1.974 5.474 1.792-5.474h1.708l-3.108 8.204q-.405 1.05-1.022 1.54-.602.49-1.456.49m10.609 0a3 3 0 0 1-.658-.07 2.3 2.3 0 0 1-.574-.224l.35-1.274q.155.07.35.112.197.056.378.056.42 0 .728-.238.322-.238.532-.77l.224-.574-2.982-7.252h1.764l1.974 5.474 1.792-5.474h1.708l-3.108 8.204q-.405 1.05-1.022 1.54-.601.49-1.456.49m9.833-2.702a3.9 3.9 0 0 1-1.484-.28 3.7 3.7 0 0 1-1.176-.812 3.8 3.8 0 0 1-.784-1.232 4.2 4.2 0 0 1-.28-1.554q0-.826.28-1.526.28-.714.784-1.232a3.5 3.5 0 0 1 1.204-.812 3.9 3.9 0 0 1 1.512-.294q.798 0 1.47.294.686.28 1.19.812.504.518.784 1.218t.28 1.54-.28 1.554a3.8 3.8 0 0 1-.798 1.232 3.6 3.6 0 0 1-1.204.812q-.687.28-1.498.28m-1.05-1.764q.475.308 1.078.308.601 0 1.078-.308.475-.322.742-.868a2.7 2.7 0 0 0 .28-1.246q0-.7-.28-1.232a2.1 2.1 0 0 0-.742-.854 1.9 1.9 0 0 0-1.078-.322q-.603 0-1.078.322a2.16 2.16 0 0 0-.756.854q-.267.532-.266 1.232 0 .7.266 1.246.279.546.756.868m9.467 1.764q-.98 0-1.708-.42a2.94 2.94 0 0 1-1.12-1.19q-.392-.784-.392-1.834v-4.088h1.61v4.116q0 .91.434 1.442.434.518 1.19.518t1.19-.518q.434-.532.434-1.442v-4.116h1.61v4.088q0 1.036-.406 1.82a2.9 2.9 0 0 1-1.12 1.204q-.727.42-1.722.42m7.964-.21v-10.416h1.61v4.158a2.74 2.74 0 0 1 1.022-.938q.63-.336 1.386-.336.727 0 1.344.294.63.294 1.092.812t.714 1.218q.266.7.266 1.512 0 .826-.266 1.54a3.9 3.9 0 0 1-.742 1.246q-.477.532-1.12.826-.63.294-1.372.294-.77 0-1.4-.336a2.6 2.6 0 0 1-.994-.952l-.07 1.078zm2.604-1.554q.475.308 1.078.308.601 0 1.078-.308.475-.322.742-.868a2.7 2.7 0 0 0 .28-1.246q0-.7-.28-1.232a2.1 2.1 0 0 0-.742-.854 1.9 1.9 0 0 0-1.078-.322q-.603 0-1.078.322a2.16 2.16 0 0 0-.756.854q-.266.532-.266 1.232t.266 1.246q.279.546.756.868m9.712 1.764a3.9 3.9 0 0 1-1.498-.28 3.68 3.68 0 0 1-1.96-2.03 4.5 4.5 0 0 1-.266-1.568q0-.826.266-1.526.279-.7.756-1.218.49-.532 1.148-.826a3.5 3.5 0 0 1 1.428-.294q.77 0 1.4.28a3.1 3.1 0 0 1 1.106.77q.476.504.728 1.204.252.686.252 1.526v.476h-5.418q.069.644.336 1.12.279.462.714.714a1.97 1.97 0 0 0 1.008.252q1.147 0 1.792-1.022l1.414.546a2.9 2.9 0 0 1-.742 1.008q-.477.42-1.12.644a4 4 0 0 1-1.344.224m-.126-6.44q-.49 0-.882.224a1.96 1.96 0 0 0-.644.63 2.5 2.5 0 0 0-.364.952h3.696a2.7 2.7 0 0 0-.322-.952 1.7 1.7 0 0 0-1.484-.854m8.231 6.44a3.6 3.6 0 0 1-1.442-.28 3.7 3.7 0 0 1-1.148-.798 3.8 3.8 0 0 1-.77-1.218 4.3 4.3 0 0 1-.266-1.526q0-.826.28-1.54t.77-1.246 1.148-.826a3.5 3.5 0 0 1 1.456-.308q.756 0 1.386.28.63.266 1.078.77.462.49.658 1.162l-1.526.364a1.9 1.9 0 0 0-.672-.826 1.62 1.62 0 0 0-.952-.294q-.56 0-1.008.322a2.24 2.24 0 0 0-.714.882 2.9 2.9 0 0 0-.252 1.246q0 .686.252 1.232.252.533.686.84.448.308 1.036.308.56 0 1.022-.28.462-.294.686-.826l1.512.35q-.197.672-.672 1.176a3.4 3.4 0 0 1-1.134.77q-.658.266-1.414.266m7.891 0a3.9 3.9 0 0 1-1.484-.28 3.7 3.7 0 0 1-1.176-.812 3.9 3.9 0 0 1-.784-1.232 4.2 4.2 0 0 1-.28-1.554q0-.826.28-1.526.28-.714.784-1.232a3.5 3.5 0 0 1 1.204-.812 3.9 3.9 0 0 1 1.512-.294q.798 0 1.47.294.686.28 1.19.812.504.518.784 1.218t.28 1.54-.28 1.554a3.8 3.8 0 0 1-.798 1.232 3.6 3.6 0 0 1-1.204.812 3.9 3.9 0 0 1-1.498.28m-1.05-1.764q.476.308 1.078.308t1.078-.308q.476-.322.742-.868.28-.546.28-1.246t-.28-1.232a2.07 2.07 0 0 0-.742-.854 1.9 1.9 0 0 0-1.078-.322q-.602 0-1.078.322-.475.308-.756.854-.266.532-.266 1.232t.266 1.246q.28.546.756.868m6.248 1.554v-7.322h1.47l.056.98q.321-.546.882-.868a2.5 2.5 0 0 1 1.274-.322q.77 0 1.358.392.588.378.91 1.05a2.5 2.5 0 0 1 .56-.756q.363-.322.84-.504a3 3 0 0 1 1.05-.182q.811 0 1.414.392.601.378.924 1.092.336.7.336 1.68V754h-1.61v-4.186q0-.91-.392-1.4-.393-.49-1.078-.49-.477 0-.854.238a1.64 1.64 0 0 0-.588.644q-.21.406-.21.924V754h-1.61v-4.186q0-.91-.392-1.4-.393-.49-1.078-.49-.477 0-.854.238a1.64 1.64 0 0 0-.588.644q-.21.406-.21.924V754zm16.212.21a3.9 3.9 0 0 1-1.498-.28 3.7 3.7 0 0 1-1.176-.812 3.7 3.7 0 0 1-.784-1.218 4.5 4.5 0 0 1-.266-1.568q0-.826.266-1.526a4 4 0 0 1 .756-1.218q.49-.532 1.148-.826a3.5 3.5 0 0 1 1.428-.294q.77 0 1.4.28a3.1 3.1 0 0 1 1.106.77q.476.504.728 1.204.252.686.252 1.526v.476h-5.418q.07.644.336 1.12.28.462.714.714a1.97 1.97 0 0 0 1.008.252q1.148 0 1.792-1.022l1.414.546a2.9 2.9 0 0 1-.742 1.008q-.476.42-1.12.644a4 4 0 0 1-1.344.224m-.126-6.44q-.49 0-.882.224a1.96 1.96 0 0 0-.644.63 2.5 2.5 0 0 0-.364.952h3.696a2.7 2.7 0 0 0-.322-.952 1.7 1.7 0 0 0-1.484-.854m11.241 6.44a3.9 3.9 0 0 1-1.484-.28 3.7 3.7 0 0 1-1.176-.812 3.9 3.9 0 0 1-.784-1.232 4.2 4.2 0 0 1-.28-1.554q0-.826.28-1.526.28-.714.784-1.232a3.5 3.5 0 0 1 1.204-.812 3.9 3.9 0 0 1 1.512-.294q.798 0 1.47.294.687.28 1.19.812.505.518.784 1.218.28.7.28 1.54t-.28 1.554a3.7 3.7 0 0 1-.798 1.232 3.6 3.6 0 0 1-1.204.812q-.685.28-1.498.28m-1.05-1.764q.477.308 1.078.308.603 0 1.078-.308.477-.322.742-.868.28-.546.28-1.246t-.28-1.232a2.06 2.06 0 0 0-.742-.854 1.9 1.9 0 0 0-1.078-.322q-.601 0-1.078.322-.476.308-.756.854-.266.532-.266 1.232t.266 1.246q.28.546.756.868m6.248 1.554v-7.322h1.47l.056 1.008a2.33 2.33 0 0 1 .896-.882 2.66 2.66 0 0 1 1.344-.336q.826 0 1.428.392.616.392.952 1.106t.336 1.68V754h-1.61v-4.172q0-.896-.406-1.4-.392-.504-1.106-.504-.504 0-.91.238a1.7 1.7 0 0 0-.616.644 1.9 1.9 0 0 0-.224.938V754zm11.619.21a3.9 3.9 0 0 1-1.498-.28 3.68 3.68 0 0 1-1.96-2.03 4.5 4.5 0 0 1-.266-1.568q0-.826.266-1.526.279-.7.756-1.218.49-.532 1.148-.826a3.5 3.5 0 0 1 1.428-.294q.77 0 1.4.28a3.1 3.1 0 0 1 1.106.77q.476.504.728 1.204.252.686.252 1.526v.476h-5.418q.069.644.336 1.12.279.462.714.714a1.97 1.97 0 0 0 1.008.252q1.147 0 1.792-1.022l1.414.546a2.9 2.9 0 0 1-.742 1.008q-.477.42-1.12.644a4 4 0 0 1-1.344.224m-.126-6.44q-.49 0-.882.224a1.96 1.96 0 0 0-.644.63 2.5 2.5 0 0 0-.364.952h3.696a2.7 2.7 0 0 0-.322-.952 1.7 1.7 0 0 0-1.484-.854m10.345 6.44q-.714 0-1.33-.238a3 3 0 0 1-1.036-.672 2.6 2.6 0 0 1-.602-1.05l1.456-.378q.182.476.588.742t.938.266q.546 0 .896-.252.35-.265.35-.672a.74.74 0 0 0-.28-.588q-.28-.238-.91-.35l-.462-.084q-1.176-.21-1.778-.756-.588-.546-.588-1.4 0-.686.35-1.204t.966-.812 1.414-.294q.685 0 1.26.238.575.239.966.672.392.434.56 1.022l-1.442.35a1.44 1.44 0 0 0-.532-.7 1.33 1.33 0 0 0-.826-.266q-.49 0-.812.252a.73.73 0 0 0-.322.616q0 .322.28.532.294.21.98.336l.462.084q1.12.196 1.722.77t.602 1.428q0 .518-.21.966-.21.434-.602.77a2.6 2.6 0 0 1-.91.49 3.5 3.5 0 0 1-1.148.182m7.135 0q-1.106 0-1.736-.63-.63-.644-.63-1.834v-3.766h-1.288v-1.302h1.288V744.2h1.61v2.478h2.128v1.302h-2.128v3.598q0 .588.238.91.252.308.728.308.252 0 .546-.07.294-.084.546-.224l.364 1.218a2.6 2.6 0 0 1-.756.35q-.42.14-.91.14m6.202 0q-.811 0-1.498-.28a3.7 3.7 0 0 1-1.176-.812 3.7 3.7 0 0 1-.784-1.218 4.5 4.5 0 0 1-.266-1.568q0-.826.266-1.526a4 4 0 0 1 .756-1.218q.49-.532 1.148-.826a3.5 3.5 0 0 1 1.428-.294q.77 0 1.4.28.644.266 1.106.77a3.4 3.4 0 0 1 .728 1.204q.252.686.252 1.526v.476h-5.418q.07.644.336 1.12.28.462.714.714.435.252 1.008.252 1.149 0 1.792-1.022l1.414.546a2.9 2.9 0 0 1-.742 1.008q-.475.42-1.12.644a4 4 0 0 1-1.344.224m-.126-6.44q-.489 0-.882.224a2 2 0 0 0-.644.63 2.6 2.6 0 0 0-.364.952h3.696a2.7 2.7 0 0 0-.322-.952 1.7 1.7 0 0 0-.63-.63 1.65 1.65 0 0 0-.854-.224m4.859 9.002v-10.094h1.47l.07 1.176a2.8 2.8 0 0 1 1.036-1.008q.644-.378 1.442-.378.728 0 1.344.294.63.294 1.092.812t.714 1.218q.266.7.266 1.512 0 .826-.266 1.54a3.9 3.9 0 0 1-.742 1.246q-.476.532-1.12.826-.63.294-1.372.294-.728 0-1.33-.308a2.7 2.7 0 0 1-.994-.868v3.738zm2.604-4.326q.476.308 1.078.308t1.078-.308q.476-.322.742-.868.28-.546.28-1.246t-.28-1.232a2.07 2.07 0 0 0-.742-.854 1.9 1.9 0 0 0-1.078-.322q-.602 0-1.078.322-.476.308-.756.854-.266.532-.266 1.232t.266 1.246q.28.546.756.868m12.526 1.764a3.6 3.6 0 0 1-1.442-.28 3.7 3.7 0 0 1-1.148-.798 3.8 3.8 0 0 1-.77-1.218 4.3 4.3 0 0 1-.266-1.526q0-.826.28-1.54t.77-1.246 1.148-.826a3.5 3.5 0 0 1 1.456-.308q.756 0 1.386.28.63.266 1.078.77.462.49.658 1.162l-1.526.364a1.9 1.9 0 0 0-.672-.826 1.62 1.62 0 0 0-.952-.294q-.56 0-1.008.322a2.26 2.26 0 0 0-.714.882 2.9 2.9 0 0 0-.252 1.246q0 .686.252 1.232.252.533.686.84.448.308 1.036.308a1.93 1.93 0 0 0 1.022-.28q.462-.294.686-.826l1.512.35q-.195.672-.672 1.176a3.4 3.4 0 0 1-1.134.77 3.7 3.7 0 0 1-1.414.266m4.544-.21v-10.416h1.61V754zm6.752.21a3.9 3.9 0 0 1-1.484-.28 3.7 3.7 0 0 1-1.176-.812 3.8 3.8 0 0 1-.784-1.232 4.2 4.2 0 0 1-.28-1.554q0-.826.28-1.526.28-.714.784-1.232a3.5 3.5 0 0 1 1.204-.812 3.9 3.9 0 0 1 1.512-.294q.798 0 1.47.294.686.28 1.19.812.504.518.784 1.218t.28 1.54-.28 1.554a3.8 3.8 0 0 1-.798 1.232 3.6 3.6 0 0 1-1.204.812q-.687.28-1.498.28m-1.05-1.764q.475.308 1.078.308.601 0 1.078-.308.475-.322.742-.868a2.7 2.7 0 0 0 .28-1.246q0-.7-.28-1.232a2.1 2.1 0 0 0-.742-.854 1.9 1.9 0 0 0-1.078-.322q-.603 0-1.078.322a2.16 2.16 0 0 0-.756.854q-.267.532-.266 1.232 0 .7.266 1.246.279.546.756.868m8.753 1.764q-.714 0-1.33-.238a3 3 0 0 1-1.036-.672 2.6 2.6 0 0 1-.602-1.05l1.456-.378q.181.476.588.742t.938.266q.546 0 .896-.252.35-.265.35-.672a.74.74 0 0 0-.28-.588q-.28-.238-.91-.35l-.462-.084q-1.176-.21-1.778-.756-.588-.546-.588-1.4 0-.686.35-1.204t.966-.812 1.414-.294q.685 0 1.26.238.575.239.966.672.392.434.56 1.022l-1.442.35a1.44 1.44 0 0 0-.532-.7 1.33 1.33 0 0 0-.826-.266q-.49 0-.812.252a.73.73 0 0 0-.322.616q0 .322.28.532.294.21.98.336l.462.084q1.12.196 1.722.77t.602 1.428q0 .518-.21.966-.21.434-.602.77a2.6 2.6 0 0 1-.91.49 3.5 3.5 0 0 1-1.148.182m7.595 0q-.811 0-1.498-.28a3.7 3.7 0 0 1-1.176-.812 3.7 3.7 0 0 1-.784-1.218 4.5 4.5 0 0 1-.266-1.568q0-.826.266-1.526a4 4 0 0 1 .756-1.218q.49-.532 1.148-.826a3.5 3.5 0 0 1 1.428-.294q.77 0 1.4.28.644.266 1.106.77a3.4 3.4 0 0 1 .728 1.204q.252.686.252 1.526v.476h-5.418q.07.644.336 1.12.28.462.714.714.435.252 1.008.252 1.149 0 1.792-1.022l1.414.546a2.9 2.9 0 0 1-.742 1.008q-.475.42-1.12.644a4 4 0 0 1-1.344.224m-.126-6.44q-.489 0-.882.224a2 2 0 0 0-.644.63 2.6 2.6 0 0 0-.364.952h3.696a2.7 2.7 0 0 0-.322-.952 1.7 1.7 0 0 0-.63-.63 1.65 1.65 0 0 0-.854-.224m4.859 6.23v-7.322h1.47l.07 1.204q.28-.616.77-.952.504-.35 1.176-.35.21 0 .406.028t.35.098l-.182 1.568a1.2 1.2 0 0 0-.322-.07 2 2 0 0 0-.336-.028q-.84 0-1.316.56t-.476 1.554V754zm11.432.21q-1.106 0-1.736-.63-.63-.644-.63-1.834v-3.766h-1.288v-1.302h1.288V744.2h1.61v2.478h2.128v1.302h-2.128v3.598q0 .588.238.91.252.308.728.308.252 0 .546-.07.294-.084.546-.224l.364 1.218a2.6 2.6 0 0 1-.756.35q-.42.14-.91.14m6.203 0a3.9 3.9 0 0 1-1.484-.28 3.7 3.7 0 0 1-1.176-.812 3.8 3.8 0 0 1-.784-1.232 4.2 4.2 0 0 1-.28-1.554q0-.826.28-1.526.28-.714.784-1.232a3.5 3.5 0 0 1 1.204-.812 3.9 3.9 0 0 1 1.512-.294q.798 0 1.47.294.686.28 1.19.812.504.518.784 1.218t.28 1.54-.28 1.554a3.8 3.8 0 0 1-.798 1.232 3.6 3.6 0 0 1-1.204.812q-.687.28-1.498.28m-1.05-1.764q.475.308 1.078.308.601 0 1.078-.308.475-.322.742-.868a2.7 2.7 0 0 0 .28-1.246q0-.7-.28-1.232a2.1 2.1 0 0 0-.742-.854 1.9 1.9 0 0 0-1.078-.322q-.603 0-1.078.322a2.16 2.16 0 0 0-.756.854q-.267.532-.266 1.232 0 .7.266 1.246.279.546.756.868m-258.35 24.466q-.35 0-.658-.07a2.3 2.3 0 0 1-.574-.224l.35-1.274q.155.07.35.112.196.056.378.056.42 0 .728-.238.322-.238.532-.77l.224-.574-2.982-7.252h1.764l1.974 5.474 1.792-5.474h1.708l-3.108 8.204q-.405 1.05-1.022 1.54-.602.49-1.456.49m9.832-2.702a3.9 3.9 0 0 1-1.484-.28 3.7 3.7 0 0 1-1.176-.812 3.9 3.9 0 0 1-.784-1.232 4.2 4.2 0 0 1-.28-1.554q0-.826.28-1.526.28-.714.784-1.232a3.5 3.5 0 0 1 1.204-.812q.7-.294 1.512-.294.798 0 1.47.294.686.28 1.19.812.504.518.784 1.218t.28 1.54-.28 1.554a3.7 3.7 0 0 1-.798 1.232 3.6 3.6 0 0 1-1.204.812 3.9 3.9 0 0 1-1.498.28m-1.05-1.764q.476.308 1.078.308.601 0 1.078-.308.476-.322.742-.868.28-.546.28-1.246t-.28-1.232a2.07 2.07 0 0 0-.742-.854 1.9 1.9 0 0 0-1.078-.322q-.601 0-1.078.322a2.17 2.17 0 0 0-.756.854q-.266.532-.266 1.232t.266 1.246q.28.546.756.868m9.468 1.764q-.98 0-1.708-.42a2.94 2.94 0 0 1-1.12-1.19q-.393-.784-.392-1.834v-4.088h1.61v4.116q0 .91.434 1.442.435.518 1.19.518t1.19-.518q.434-.532.434-1.442v-4.116h1.61v4.088q0 1.036-.406 1.82a2.9 2.9 0 0 1-1.12 1.204q-.729.42-1.722.42m4.983-.21v-7.322h1.47l.07 1.204q.28-.616.77-.952.504-.35 1.176-.35.21 0 .406.028.195.028.35.098l-.182 1.568a1.2 1.2 0 0 0-.322-.07 2 2 0 0 0-.336-.028q-.84 0-1.316.56t-.476 1.554V774zm11.46-.14a3.2 3.2 0 0 1-1.33-.28 3.4 3.4 0 0 1-1.078-.77 3.6 3.6 0 0 1-.714-1.162 4.1 4.1 0 0 1-.252-1.456q0-.784.252-1.456a3.6 3.6 0 0 1 .742-1.19 3.4 3.4 0 0 1 1.106-.784q.63-.294 1.358-.294.756 0 1.372.336.63.322 1.008.91l.056-1.036h1.47v6.552a4.2 4.2 0 0 1-.266 1.526 3.33 3.33 0 0 1-1.932 1.96 4.1 4.1 0 0 1-1.512.266q-1.12 0-1.96-.504a3.53 3.53 0 0 1-1.316-1.4l1.526-.532q.308.504.77.756.462.266 1.036.266.615 0 1.078-.28.462-.266.714-.77.252-.49.252-1.162v-.7a2.8 2.8 0 0 1-1.008.882q-.615.322-1.372.322m-.714-1.75q.462.294 1.05.294t1.05-.294q.476-.294.742-.798.28-.504.28-1.148t-.28-1.148a2.04 2.04 0 0 0-.742-.798 1.9 1.9 0 0 0-1.05-.294q-.588 0-1.05.294a2.2 2.2 0 0 0-.742.798 2.4 2.4 0 0 0-.266 1.148q0 .644.266 1.148.28.504.742.798m9.841 2.1a3.9 3.9 0 0 1-1.484-.28 3.7 3.7 0 0 1-1.176-.812 3.9 3.9 0 0 1-.784-1.232 4.2 4.2 0 0 1-.28-1.554q0-.826.28-1.526.28-.714.784-1.232a3.5 3.5 0 0 1 1.204-.812q.7-.294 1.512-.294.798 0 1.47.294.686.28 1.19.812.505.518.784 1.218.28.7.28 1.54t-.28 1.554a3.7 3.7 0 0 1-.798 1.232 3.6 3.6 0 0 1-1.204.812 3.9 3.9 0 0 1-1.498.28m-1.05-1.764q.477.308 1.078.308.603 0 1.078-.308.477-.322.742-.868a2.7 2.7 0 0 0 .28-1.246q0-.7-.28-1.232a2.07 2.07 0 0 0-.742-.854 1.9 1.9 0 0 0-1.078-.322q-.6 0-1.078.322-.475.308-.756.854-.266.532-.266 1.232.001.7.266 1.246.281.546.756.868m8.488 1.764q-.56 0-1.036-.168a2.5 2.5 0 0 1-.812-.476 2.16 2.16 0 0 1-.742-1.652q0-.7.364-1.218.378-.532 1.05-.826t1.568-.294q.49 0 .938.098.448.084.854.252v-.462q0-.49-.182-.854a1.4 1.4 0 0 0-.518-.588 1.5 1.5 0 0 0-.812-.21q-.505 0-.91.266t-.602.742l-1.484-.336q.168-.616.602-1.064a3.2 3.2 0 0 1 1.064-.7q.63-.252 1.358-.252.686 0 1.246.224.575.224.98.63t.63.966.224 1.246V774h-1.47l-.056-.966q-.294.532-.882.854t-1.372.322m-.966-2.366q0 .308.168.56.168.238.462.378.308.14.714.14.517 0 .924-.224.405-.224.644-.602.238-.391.238-.882v-.168a4 4 0 0 0-.756-.238 3 3 0 0 0-.784-.098q-.727 0-1.176.308a.96.96 0 0 0-.434.826M95.618 774v-10.416h1.61V774zm4.792-.084q-.238.14-.532.14t-.532-.14a1.16 1.16 0 0 1-.392-.378 1.1 1.1 0 0 1-.14-.546q0-.294.14-.532.153-.252.392-.392.237-.14.532-.14.294 0 .532.14.237.14.378.392a.97.97 0 0 1 .154.532q0 .294-.154.546-.141.238-.378.378m5.205.084v-9.94h3.626q1.176 0 2.142.364a4.6 4.6 0 0 1 1.666 1.008q.7.644 1.078 1.554t.378 2.03-.378 2.044a4.5 4.5 0 0 1-1.078 1.568 5 5 0 0 1-1.666 1.022q-.966.35-2.142.35zm1.708-1.526h1.834q1.106 0 1.904-.42t1.232-1.19q.448-.784.448-1.834t-.448-1.82a2.93 2.93 0 0 0-1.246-1.204q-.798-.42-1.89-.42h-1.834zm12.095 1.736a3.9 3.9 0 0 1-1.484-.28 3.7 3.7 0 0 1-1.176-.812 3.9 3.9 0 0 1-.784-1.232 4.2 4.2 0 0 1-.28-1.554q0-.826.28-1.526.28-.714.784-1.232a3.5 3.5 0 0 1 1.204-.812 3.9 3.9 0 0 1 1.512-.294q.798 0 1.47.294.686.28 1.19.812.504.518.784 1.218t.28 1.54-.28 1.554a3.7 3.7 0 0 1-.798 1.232 3.6 3.6 0 0 1-1.204.812q-.685.28-1.498.28m-1.05-1.764q.477.308 1.078.308.603 0 1.078-.308.477-.322.742-.868.28-.546.28-1.246t-.28-1.232a2.06 2.06 0 0 0-.742-.854 1.9 1.9 0 0 0-1.078-.322q-.601 0-1.078.322-.475.308-.756.854-.266.532-.266 1.232t.266 1.246q.28.546.756.868m6.248 1.554v-7.322h1.47l.056 1.008a2.33 2.33 0 0 1 .896-.882 2.66 2.66 0 0 1 1.344-.336q.826 0 1.428.392.616.392.952 1.106t.336 1.68V774h-1.61v-4.172q0-.896-.406-1.4-.392-.504-1.106-.504-.504 0-.91.238a1.7 1.7 0 0 0-.616.644 1.9 1.9 0 0 0-.224.938V774zm8.698-9.996q.35 0 .644.224t.462.602q.182.378.182.84 0 .546-.238 1.022a2.4 2.4 0 0 1-.644.826 3.1 3.1 0 0 1-.994.546l-.322-.868q.531-.196.84-.56.321-.378.322-.798 0-.168-.028-.294a.58.58 0 0 1-.35.112.84.84 0 0 1-.406-.098.9.9 0 0 1-.28-.294.83.83 0 0 1-.112-.42q0-.224.126-.42a.9.9 0 0 1 .336-.308.96.96 0 0 1 .462-.112m5.974 10.206q-1.106 0-1.736-.63-.63-.644-.63-1.834v-3.766h-1.288v-1.302h1.288V764.2h1.61v2.478h2.128v1.302h-2.128v3.598q0 .588.238.91.252.308.728.308.252 0 .546-.07.294-.084.546-.224l.364 1.218a2.6 2.6 0 0 1-.756.35q-.42.14-.91.14m8.97-.35q-.714 0-1.33-.28a3.4 3.4 0 0 1-1.078-.77 3.6 3.6 0 0 1-.714-1.162 4.1 4.1 0 0 1-.252-1.456q0-.784.252-1.456a3.6 3.6 0 0 1 .742-1.19 3.4 3.4 0 0 1 1.106-.784q.63-.294 1.358-.294.756 0 1.372.336.63.322 1.008.91l.056-1.036h1.47v6.552q0 .84-.266 1.526a3.3 3.3 0 0 1-.756 1.19 3.3 3.3 0 0 1-1.176.77 4.1 4.1 0 0 1-1.512.266q-1.12 0-1.96-.504a3.5 3.5 0 0 1-1.316-1.4l1.526-.532q.308.504.77.756.462.266 1.036.266.616 0 1.078-.28.462-.266.714-.77.252-.49.252-1.162v-.7a2.8 2.8 0 0 1-1.008.882 2.9 2.9 0 0 1-1.372.322m-.714-1.75q.462.294 1.05.294t1.05-.294q.476-.294.742-.798.28-.504.28-1.148t-.28-1.148a2.04 2.04 0 0 0-.742-.798 1.9 1.9 0 0 0-1.05-.294q-.588 0-1.05.294a2.2 2.2 0 0 0-.742.798 2.4 2.4 0 0 0-.266 1.148q0 .644.266 1.148.28.504.742.798m8.077-7.966q.14.224.14.49a.9.9 0 0 1-.14.49 1 1 0 0 1-.35.364 1 1 0 0 1-.49.126 1 1 0 0 1-.49-.126 1.14 1.14 0 0 1-.364-.364 1 1 0 0 1-.126-.49q0-.266.126-.49.14-.224.364-.35a.9.9 0 0 1 .49-.14q.267 0 .49.14.225.126.35.35M153.983 774v-7.322h1.61V774zm5.478 0-2.8-7.322h1.764l1.876 5.642 1.89-5.642h1.708l-2.8 7.322zm8.684.21a3.9 3.9 0 0 1-1.498-.28 3.7 3.7 0 0 1-1.176-.812 3.7 3.7 0 0 1-.784-1.218 4.5 4.5 0 0 1-.266-1.568q0-.826.266-1.526a4 4 0 0 1 .756-1.218q.49-.532 1.148-.826a3.5 3.5 0 0 1 1.428-.294q.77 0 1.4.28a3.1 3.1 0 0 1 1.106.77q.476.504.728 1.204.252.686.252 1.526v.476h-5.418q.07.644.336 1.12.28.462.714.714a1.97 1.97 0 0 0 1.008.252q1.148 0 1.792-1.022l1.414.546a2.9 2.9 0 0 1-.742 1.008q-.476.42-1.12.644a4 4 0 0 1-1.344.224m-.126-6.44q-.49 0-.882.224a1.96 1.96 0 0 0-.644.63 2.5 2.5 0 0 0-.364.952h3.696a2.7 2.7 0 0 0-.322-.952 1.7 1.7 0 0 0-1.484-.854m11.059 6.44q-.98 0-1.708-.42a2.94 2.94 0 0 1-1.12-1.19q-.392-.784-.392-1.834v-4.088h1.61v4.116q0 .91.434 1.442.435.518 1.19.518.756 0 1.19-.518.434-.532.434-1.442v-4.116h1.61v4.088q0 1.036-.406 1.82a2.9 2.9 0 0 1-1.12 1.204q-.728.42-1.722.42m4.983 2.562v-10.094h1.47l.07 1.176a2.84 2.84 0 0 1 1.036-1.008q.644-.378 1.442-.378.729 0 1.344.294.63.294 1.092.812t.714 1.218q.266.7.266 1.512a4.4 4.4 0 0 1-.266 1.54 3.9 3.9 0 0 1-.742 1.246q-.475.532-1.12.826-.63.294-1.372.294-.727 0-1.33-.308a2.7 2.7 0 0 1-.994-.868v3.738zm2.604-4.326q.477.308 1.078.308.603 0 1.078-.308.477-.322.742-.868.28-.546.28-1.246t-.28-1.232a2.06 2.06 0 0 0-.742-.854 1.9 1.9 0 0 0-1.078-.322q-.601 0-1.078.322-.475.308-.756.854-.266.532-.266 1.232t.266 1.246q.28.546.756.868m6.34-1.358-.084-7.028h1.736l-.084 7.028zm1.302 2.828a.96.96 0 0 1-.518.14q-.294 0-.532-.14a1.1 1.1 0 0 1-.364-.378 1 1 0 0 1-.14-.518q0-.28.14-.518t.364-.378q.238-.14.532-.14t.518.14a1.04 1.04 0 0 1 .378 1.414 1.04 1.04 0 0 1-.378.378"/></g><defs><filter id="b" width="793.097" height="793.097" x="-303.548" y="222.452" color-interpolation-filters="sRGB" filterUnits="userSpaceOnUse"><feFlood flood-opacity="0" result="BackgroundImageFix"/><feBlend in="SourceGraphic" in2="BackgroundImageFix" result="shape"/><feGaussianBlur result="effect1_foregroundBlur_113_988" stdDeviation="40.774"/></filter><filter id="c" width="793.097" height="793.097" x="-168.548" y="-42.548" color-interpolation-filters="sRGB" filterUnits="userSpaceOnUse"><feFlood flood-opacity="0" result="BackgroundImageFix"/><feBlend in="SourceGraphic" in2="BackgroundImageFix" result="shape"/><feGaussianBlur result="effect1_foregroundBlur_113_988" stdDeviation="40.774"/></filter><filter id="d" width="501" height="200.037" x="27" y="209.987" color-interpolation-filters="sRGB" filterUnits="userSpaceOnUse"><feFlood flood-opacity="0" result="BackgroundImageFix"/><feColorMatrix in="SourceAlpha" result="hardAlpha" values="0 0 0 0 0 0 0 0 0 0 0 0 0 0 0 0 0 0 127 0"/><feOffset dx="58" dy="26"/><feGaussianBlur stdDeviation="34"/><feComposite in2="hardAlpha" operator="out"/><feColorMatrix values="0 0 0 0 0.135417 0 0 0 0 0.173611 0 0 0 0 0.364583 0 0 0 0.06 0"/><feBlend in2="BackgroundImageFix" result="effect1_dropShadow_113_988"/><feBlend in="SourceGraphic" in2="effect1_dropShadow_113_988" result="shape"/></filter><filter id="e" width="501" height="200.037" x="27" y="277.529" color-interpolation-filters="sRGB" filterUnits="userSpaceOnUse"><feFlood flood-opacity="0" result="BackgroundImageFix"/><feColorMatrix in="SourceAlpha" result="hardAlpha" values="0 0 0 0 0 0 0 0 0 0 0 0 0 0 0 0 0 0 127 0"/><feOffset dx="58" dy="26"/><feGaussianBlur stdDeviation="34"/><feComposite in2="hardAlpha" operator="out"/><feColorMatrix values="0 0 0 0 0.135417 0 0 0 0 0.173611 0 0 0 0 0.364583 0 0 0 0.06 0"/><feBlend in2="BackgroundImageFix" result="effect1_dropShadow_113_988"/><feBlend in="SourceGraphic" in2="effect1_dropShadow_113_988" result="shape"/></filter><filter id="f" width="501" height="200.037" x="27" y="345.07" color-interpolation-filters="sRGB" filterUnits="userSpaceOnUse"><feFlood flood-opacity="0" result="BackgroundImageFix"/><feColorMatrix in="SourceAlpha" result="hardAlpha" values="0 0 0 0 0 0 0 0 0 0 0 0 0 0 0 0 0 0 127 0"/><feOffset dx="58" dy="26"/><feGaussianBlur stdDeviation="34"/><feComposite in2="hardAlpha" operator="out"/><feColorMatrix values="0 0 0 0 0.135417 0 0 0 0 0.173611 0 0 0 0 0.364583 0 0 0 0.06 0"/><feBlend in2="BackgroundImageFix" result="effect1_dropShadow_113_988"/><feBlend in="SourceGraphic" in2="effect1_dropShadow_113_988" result="shape"/></filter><clipPath id="a"><path d="M0 0h440v956H0z"/></clipPath></defs></svg>